<svg width="200" height="100" viewBox="0 0 200 100" fill="none" xmlns="http://www.w3.org/2000/svg">
    <mask id="mask0" mask-type="alpha" maskUnits="userSpaceOnUse" x="0" y="0" width="200" height="100">
        <rect width="200" height="100" fill="white"/>
    </mask>
    <g mask="url(#mask0)">
        <g opacity="0.9">
            <g opacity="0.9">
            <path opacity="0.9" d="M185.341 34.0936C191.023 38.8062 188.118 46.8144 181.698 51.781C176.156 56.0922 169.242 52.9765 165.16 56.8342C160.87 60.8562 163.02 69.2784 155.978 71.5146C148.935 73.7508 132.413 66.1517 127.038 74.2171L127.743 76.6233C127.743 76.6233 138.155 70.1035 139.235 66.147C140.315 62.1906 141.442 53.4011 148.382 52.8588C155.322 52.3166 158.323 47.5801 158.914 45.1687C159.507 42.7138 160.79 37.8522 166.772 33.6054C172.753 29.3586 181.678 31.0449 185.341 34.0936Z" fill="#85CCC3"/>
            <path opacity="0.9" d="M172.605 38.153C172.968 37.9313 180.748 32.8357 187.217 33.4556C189.844 33.7159 189.647 35.3918 186.749 35.5276C181.21 35.8336 179.521 36.3556 173.136 38.3229C173.039 38.292 172.605 38.153 172.605 38.153Z" fill="#C3E4E0"/>
            <path opacity="0.9" d="M174.225 37.8016C174.647 37.84 183.526 35.656 188.731 43.213C190.646 45.9993 186.31 43.1153 184.126 41.6443C178.418 37.8388 178.31 38.7699 173.54 38.4038C173.443 38.3729 174.225 37.8016 174.225 37.8016Z" fill="#C3E4E0"/>
            <path opacity="0.9" d="M172.459 38.1066C172.737 38.0985 178.517 38.4012 182.041 41.7986C182.752 42.461 184.156 47.1609 182.587 45.7897C179.657 43.21 178.896 40.4062 172.627 38.4982C172.578 38.4827 172.459 38.1066 172.459 38.1066Z" fill="#C3E4E0"/>
            <path opacity="0.9" d="M168.925 38.8595C169.202 38.8514 174.446 39.1276 177.711 41.959C178.36 42.5052 179.689 46.4564 178.261 45.2751C175.547 43.1024 174.819 40.7447 169.127 39.1657C169.031 39.1348 168.925 38.8595 168.925 38.8595Z" fill="#C3E4E0"/>
            <path opacity="0.9" d="M170.265 38.6607C170.467 38.4354 174.64 32.6697 179.623 31.8484C183.431 31.2306 182.122 32.5512 180.112 33.4537C176.155 35.2317 174.619 36.0444 170.686 38.6989C170.668 38.7417 170.265 38.6607 170.265 38.6607Z" fill="#C3E4E0"/>
            <path opacity="0.9" d="M167.876 38.6207C167.946 38.4498 169.419 34.8634 172.681 33.9746C174.025 33.6315 174.654 34.3638 173.318 34.9513C170.847 36.0446 170.294 36.5924 168.121 38.5544C168.152 38.6125 167.876 38.6207 167.876 38.6207Z" fill="#C3E4E0"/>
            <path opacity="0.9" d="M163.502 40.2166C163.12 40.481 162.874 40.5472 163.327 40.6436C164.182 40.8209 166.269 41.1983 167.293 41.7671C170.956 43.7601 173.5 43.5589 173.5 43.5589C174.444 43.5227 171.351 42.0023 168.842 40.5237C166.909 39.3742 163.502 40.2166 163.502 40.2166Z" fill="#C3E4E0"/>
            <path opacity="0.9" d="M136.462 79.291C136.988 76.9474 137.675 74.6075 138.46 72.2985C139.245 69.9895 140.126 67.7113 141.152 65.4796C142.13 63.2324 143.253 61.0315 144.472 58.8616C145.692 56.6916 147.039 54.6107 148.53 52.5762C149.277 51.559 150.071 50.5572 150.896 49.6135C151.721 48.6697 152.611 47.6989 153.516 46.8287C155.389 45.0613 157.391 43.383 159.709 41.999C160.867 41.307 162.057 40.6731 163.309 40.1556C164.561 39.638 165.842 39.1786 167.168 38.8782C169.838 38.2346 172.64 38.068 175.315 38.3437C172.6 38.2969 169.891 38.638 167.349 39.3706C164.807 40.1031 162.462 41.2854 160.307 42.6731C160.026 42.8247 159.776 43.0346 159.495 43.1863C159.245 43.396 158.964 43.5477 158.714 43.7575L157.932 44.3287L157.199 44.9154C156.215 45.7119 155.312 46.5819 154.407 47.4521C152.647 49.2077 151.028 51.1532 149.572 53.1024C148.097 55.0942 146.75 57.1752 145.518 59.2442C144.267 61.356 143.114 63.4987 142.04 65.7151C140.983 67.8886 139.957 70.1204 139.026 72.3831C138.128 74.7038 137.247 76.982 136.462 79.291Z" fill="#68B288"/>
            </g>
        </g>
        <path d="M67.8212 66.116L85.6954 63.9362C83.5402 60.1452 85.7586 66.0319 83.5105 61.6442C80.199 55.1566 76.6632 57.2093 75.0649 56.6745C69.8771 54.9155 80.0495 48.9318 78.4395 45.6827C73.7784 36.157 67.4122 42.4061 64.0066 41.7674C52.0482 39.5773 57.8685 24.2739 56.5893 22.8489C53.9097 19.811 51.8744 22.9373 51.0584 25.3476C50.1509 28.0527 46.5271 26.0217 47.7773 21.6938C48.7002 18.5005 48.7522 13.2647 45.9011 12.3557C43.05 11.4468 42.0231 14.8555 39.6086 14.0961C37.4318 13.3886 38.3312 9.75215 37.2475 7.81686C35.5139 4.66354 31.2363 6.07706 30.5227 8.55586C29.3703 12.6285 35.1683 13.2998 34.6738 15.7113C34.2057 17.9979 32.167 16.7061 30.3074 16.8519C27.6308 17.0566 27.2486 20.1841 29.6247 22.1646C33.0515 24.9897 34.8836 22.6178 36.2423 24.8437C37.6011 27.0697 35.6022 28.0837 33.2907 28.5683C31.2885 28.9747 27.9356 28.0863 28.1769 32.5566C28.3324 36.1861 36.0861 36.7404 38.4543 41.6C39.5427 43.8589 35.8255 44.9835 36.4649 47.0134C38.1885 52.1542 47.8986 52.1287 51.1576 55.0554C52.6045 56.3788 50.4207 61.4231 51.4723 64.6189C53.3885 69.8174 67.8212 66.116 67.8212 66.116Z" fill="#A0D1CB"/>
        <path d="M17.3081 43.1842C21.4532 67.7239 46.3941 50.0655 54.589 78.5606C51.8014 65.2408 48.2205 49.8807 38.9186 37.9422C33.7348 31.193 23.8254 44.9218 17.3081 43.1842Z" fill="#85CCC3"/>
        <path d="M40.1099 40.2462C39.426 39.1088 37.0431 37.1287 34.5687 38.3245C32.3812 39.3034 29.3172 47.7324 27.0037 50.8665C22.0108 57.5463 9.95738 58.9284 8 57.7408C8 57.7408 12.0566 57.3071 14.2252 54.654C17.661 50.4688 11.9969 46.8841 16.6651 43.2188C19.6249 40.9467 22.4427 41.4835 25.349 39.5897C27.0952 38.4718 31.2843 34.3922 35.6845 35.6909C38.307 36.3417 40.1099 40.2462 40.1099 40.2462Z" fill="#C3E4E0"/>
        <path d="M36.2871 12.6621C36.2871 12.6621 43.3761 24.0348 44.0206 41.0939C44.665 58.153 43.3761 45.643 43.3761 45.643C43.3761 45.643 42.6088 54.7412 42.7317 41.6625C42.8545 28.5839 36.2871 12.6621 36.2871 12.6621Z" fill="#84C09E"/>
        <path d="M29.1977 46.7803C34.3538 53.6039 46.5995 54.7412 46.5995 54.7412L44.666 56.4471C44.666 56.4471 33.0648 54.7412 28.5532 48.4862L29.1977 46.7803Z" fill="#84C09E" fill-opacity="0.5"/>
        <path d="M169.938 24.4992C170.077 24.0123 178.607 11.5925 182.395 8.81737C184.68 7.20938 186.415 7.81748 182.504 12.3601C179.056 16.3599 169.999 24.7851 170.203 24.5842L169.938 24.4992Z" fill="#C3E4E0"/>
        <path d="M169.739 24.5421C170.164 24.0933 180.461 14.2579 189.237 12.812C192.797 12.197 193.051 14.5102 189.218 15.7829C181.991 18.1488 177.912 19.8744 169.946 24.768L169.739 24.5421Z" fill="#C3E4E0"/>
        <path d="M169.734 24.7014C170.154 24.4106 180.492 17.9899 188.066 19.0298C191.54 19.5034 190.726 21.6344 187.386 21.4169C181.886 21.04 174.913 22.6371 169.889 24.9103C169.836 24.8934 169.734 24.7014 169.734 24.7014Z" fill="#C3E4E0"/>
        <path d="M168.58 26.1922C169.014 26.0122 178.836 21.2868 185.303 22.8235C188.325 23.5237 187.34 25.3349 184.42 24.8265C179.703 24.0089 173.363 24.7986 168.701 26.3371C168.609 26.414 168.58 26.1922 168.58 26.1922Z" fill="#C3E4E0"/>
        <path d="M169.443 25.4055C169.559 25.1236 172.406 19.0714 168.412 14.4454C166.579 12.3178 164.579 12.7943 166.146 14.8369C168.694 18.1501 169.679 22.3447 169.178 25.3205L169.443 25.4055Z" fill="#C3E4E0"/>
        <path d="M167.86 27.5036C169.782 26.0453 175.172 25.9613 176.429 27.586C178.634 30.4176 176.924 29.6046 174.507 29.0442C172.037 28.467 169.513 27.8727 167.987 28.0754C166.855 28.1921 167.86 27.5036 167.86 27.5036Z" fill="#C3E4E0"/>
        <path d="M167.551 27.6704C167.389 25.8649 164.396 23.047 162.545 23.3057C159.4 23.7879 160.928 24.1701 162.706 25.1112C164.538 26.0693 166.318 27.0103 167.077 27.9442C167.667 28.5581 167.551 27.6704 167.551 27.6704Z" fill="#C3E4E0"/>
        <path d="M168.935 24.4471C169.403 22.5767 167.648 19.6762 165.429 19.6579C161.118 19.608 159.332 22.492 164.135 21.636C165.951 21.3134 167.515 24.099 167.956 26.6852C168.107 27.637 168.935 24.4471 168.935 24.4471Z" fill="#C3E4E0"/>
        <path d="M170.034 24.8497C170.294 24.5079 173.992 18.7278 176.679 12.0397C177.937 8.82818 173.715 10.0289 172.601 13.7653C171.213 18.3174 171.9 20.4508 169.86 24.6878C169.821 24.7817 170.034 24.8497 170.034 24.8497Z" fill="#C3E4E0"/>
        <path d="M144.446 78.6417C145.902 73.6328 147.624 68.7089 149.418 63.7552C150.315 61.2782 151.3 58.8823 152.25 56.4224C153.254 53.9795 154.238 51.5835 155.295 49.1576C156.352 46.7318 157.442 44.3698 158.605 41.9779C159.769 39.5861 160.965 37.2581 162.341 34.9343C163.663 32.5934 165.073 30.3335 166.696 28.1416C167.497 27.0692 168.353 26.0137 169.313 24.9923C169.81 24.5135 170.308 24.0348 170.858 23.5731C171.389 23.1583 172.028 22.7776 172.68 22.5078C172.008 22.8245 171.477 23.2393 170.98 23.7181C170.482 24.1968 169.984 24.6756 169.594 25.1882C168.739 26.2437 167.937 27.3162 167.241 28.4226C166.547 29.5291 165.832 30.6825 165.191 31.8059C164.529 32.9764 163.887 34.0999 163.279 35.2873C162.671 36.4748 162.081 37.6152 161.527 38.8197C160.919 40.0071 160.384 41.1646 159.828 42.369C158.738 44.731 157.628 47.1399 156.571 49.5658C155.514 51.9917 154.476 54.3705 153.42 56.7964C152.363 59.2224 151.379 61.6182 150.376 64.0612L144.446 78.6417Z" fill="#84C09E"/>
        <path fill-rule="evenodd" clip-rule="evenodd" d="M108.173 93.0004C138.476 93.0004 163.042 91.0553 163.042 88.656C163.042 86.2566 138.476 84.3115 108.173 84.3115C86.9573 84.3115 68.5536 85.2649 59.4235 86.6601C58.0899 86.6117 56.7034 86.5861 55.2803 86.5861C44.7907 86.5861 36.2871 87.9754 36.2871 89.6892C36.2871 91.4031 44.7907 92.7924 55.2803 92.7924C60.9572 92.7924 66.0523 92.3855 69.5328 91.7405C79.45 92.5193 93.1021 93.0004 108.173 93.0004Z" fill="#3DAAE3" fill-opacity="0.1"/>
        <path d="M118.785 74.0752H95.5825V84.3106H118.785V74.0752Z" fill="url(#paint0_linear)"/>
        <path d="M89.1372 87.7233C89.1372 85.839 90.8684 84.3115 93.0043 84.3115H121.363C123.499 84.3115 125.23 85.839 125.23 87.7233H89.1372Z" fill="#D5D3D1"/>
        <path d="M158.744 14.9375H54.3334C52.9096 14.9375 51.7554 15.9558 51.7554 17.212V76.3502C51.7554 77.6064 52.9096 78.6247 54.3334 78.6247H158.744C160.168 78.6247 161.322 77.6064 161.322 76.3502V17.212C161.322 15.9558 160.168 14.9375 158.744 14.9375Z" fill="url(#paint1_linear)"/>
        <path d="M156.166 19.4863H56.9116C56.1997 19.4863 55.6226 19.9955 55.6226 20.6236V68.389C55.6226 69.0171 56.1997 69.5263 56.9116 69.5263H156.166C156.878 69.5263 157.455 69.0171 157.455 68.389V20.6236C157.455 19.9955 156.878 19.4863 156.166 19.4863Z" fill="url(#paint2_linear)"/>
        <path fill-rule="evenodd" clip-rule="evenodd" d="M65.0549 30.1514H41.0825C39.1535 30.1514 37.5862 31.597 37.5862 33.3762V52.4937H37.5767V78.1167C37.5767 79.896 39.144 81.3416 41.073 81.3416H65.0353C66.9643 81.3416 68.5318 79.896 68.5318 78.1167V53.7356H68.5512V33.3762C68.5512 31.597 66.9839 30.1514 65.0549 30.1514Z" fill="url(#paint3_linear)"/>
        <path d="M63.0188 33.875H43.0864C42.3745 33.875 41.7974 34.3842 41.7974 35.0123V76.1825C41.7974 76.8105 42.3745 77.3198 43.0864 77.3198H63.0188C63.7307 77.3198 64.3078 76.8105 64.3078 76.1825V35.0123C64.3078 34.3842 63.7307 33.875 63.0188 33.875Z" fill="url(#paint4_linear)"/>
        <path d="M107.828 49.0188C111.743 49.0188 114.918 46.2183 114.918 42.7638C114.918 39.3092 111.743 36.5088 107.828 36.5088C103.912 36.5088 100.738 39.3092 100.738 42.7638C100.738 46.2183 103.912 49.0188 107.828 49.0188Z" fill="white"/>
        <path d="M100.094 51.2931C103.298 51.2931 105.895 49.0018 105.895 46.1753C105.895 43.3489 103.298 41.0576 100.094 41.0576C96.8905 41.0576 94.2935 43.3489 94.2935 46.1753C94.2935 49.0018 96.8905 51.2931 100.094 51.2931Z" fill="white"/>
        <path d="M116.206 51.2943C119.054 51.2943 121.362 49.2574 121.362 46.7448C121.362 44.2322 119.054 42.1953 116.206 42.1953C113.359 42.1953 111.05 44.2322 111.05 46.7448C111.05 49.2574 113.359 51.2943 116.206 51.2943Z" fill="white"/>
        <path d="M116.207 47.8818H99.4492V51.2937H116.207V47.8818Z" fill="white"/>
        <path d="M53.6888 57.7926C55.3669 57.7926 56.7272 56.5923 56.7272 55.1116C56.7272 53.631 55.3669 52.4307 53.6888 52.4307C52.0107 52.4307 50.6504 53.631 50.6504 55.1116C50.6504 56.5923 52.0107 57.7926 53.6888 57.7926Z" fill="white"/>
        <path d="M50.3741 58.7679C51.7471 58.7679 52.8601 57.7858 52.8601 56.5744C52.8601 55.3629 51.7471 54.3809 50.3741 54.3809C49.0012 54.3809 47.8882 55.3629 47.8882 56.5744C47.8882 57.7858 49.0012 58.7679 50.3741 58.7679Z" fill="white"/>
        <path d="M57.2801 58.7677C58.5005 58.7677 59.4898 57.8948 59.4898 56.818C59.4898 55.7411 58.5005 54.8682 57.2801 54.8682C56.0597 54.8682 55.0703 55.7411 55.0703 56.818C55.0703 57.8948 56.0597 58.7677 57.2801 58.7677Z" fill="white"/>
        <path d="M57.2803 57.3047H50.0986V58.767H57.2803V57.3047Z" fill="white"/>
    </g>
    <defs>
        <linearGradient id="paint0_linear" x1="107.184" y1="74.0752" x2="107.184" y2="84.3106" gradientUnits="userSpaceOnUse">
            <stop stop-color="#A8A4A1"/>
            <stop offset="1" stop-color="#D5D3D1"/>
        </linearGradient>
        <linearGradient id="paint1_linear" x1="106.539" y1="14.9375" x2="106.539" y2="78.6247" gradientUnits="userSpaceOnUse">
            <stop stop-color="#E1DFDD"/>
            <stop offset="1" stop-color="#CAC8C6"/>
        </linearGradient>
        <linearGradient id="paint2_linear" x1="106.54" y1="18.7745" x2="106.54" y2="69.2853" gradientUnits="userSpaceOnUse">
            <stop stop-color="#AFCFF3"/>
            <stop offset="1" stop-color="#3DAAE3"/>
        </linearGradient>
        <linearGradient id="paint3_linear" x1="53.064" y1="30.1514" x2="53.064" y2="81.3416" gradientUnits="userSpaceOnUse">
            <stop stop-color="white"/>
            <stop offset="0.0001" stop-color="#E1DFDD"/>
            <stop offset="1" stop-color="#D7D5D3"/>
        </linearGradient>
        <linearGradient id="paint4_linear" x1="53.0526" y1="33.875" x2="53.0526" y2="77.3198" gradientUnits="userSpaceOnUse">
            <stop stop-color="#AFCFF3"/>
            <stop offset="1" stop-color="#3DAAE3"/>
        </linearGradient>
    </defs>
</svg>