<svg id="GRAPHICS" xmlns="http://www.w3.org/2000/svg" xmlns:xlink="http://www.w3.org/1999/xlink" width="208" height="208" viewBox="0 0 208 208"><defs><linearGradient id="New_Gradient_Swatch_copy_2" x1="918.252" y1="-283.841" x2="884.779" y2="-284.294" gradientTransform="translate(-842.982 539.037) rotate(-3.97)" gradientUnits="userSpaceOnUse"><stop offset="0" stop-color="#f5b453"/><stop offset="1" stop-color="#fed494"/></linearGradient><linearGradient id="linear-gradient" x1="13815.423" y1="-266.803" x2="13814.265" y2="-283.487" gradientTransform="matrix(-0.998, 0.069, 0.069, 0.998, 13857.569, -481.259)" xlink:href="#New_Gradient_Swatch_copy_2"/><linearGradient id="linear-gradient-2" x1="13804.421" y1="-269.45" x2="13803.323" y2="-285.271" gradientTransform="matrix(-0.998, 0.069, 0.069, 0.998, 13857.569, -481.259)" xlink:href="#New_Gradient_Swatch_copy_2"/></defs><path d="M183,181.827c18.1-8.418,35.091-35.855,11.508-82C182.9,77.1,207.012,60,185.505,40.125c-22.984-21.244-68.675-17.08-81.012-6.991-19.561,16-8.227,42.3-23.007,38.076S49.472,59.5,35.849,68.441c-17.318,11.368-8.54,18.746-10.309,34.712C23.43,122.2,8,140.429,3.081,157.8c-3.033,10.719,10.4,21.157,18.052,22.82C61.722,189.444,139.347,202.133,183,181.827Z" style="fill:#fce39c;opacity:0.30000000000000004"/><path d="M105.427,101.237c.562-.056,11.718-.969,19.554,5.486,1.525,1.257,5.722,11.084,2.288,8.527-6.466-4.815-8.821-10.723-21.379-13.235A4.919,4.919,0,0,1,105.427,101.237Z" style="fill:#fde3ba"/><path d="M103.344,101.377c.752-.443,16.624-10.587,29.055-8.355,5.046.906,4.468,4.569-1.25,4.515-10.765-.1-14.131.841-26.867,4.261A5.038,5.038,0,0,1,103.344,101.377Z" style="fill:#fde3ba"/><path d="M105.427,101.237c.8-.036,21.513-7.1,33.8,7.923,4.539,5.549-4.727.431-9.4-2.164-12.194-6.773-12.956-5.608-22.294-5.188C107.435,101.812,105.427,101.237,105.427,101.237Z" style="fill:#fde3ba"/><path d="M101.052,100.884c.516.049,10.73,1.183,16.7,7.8,1.163,1.288,3.286,10.056.622,7.379-5.017-5.04-6.142-10.283-17.04-14.463A4,4,0,0,1,101.052,100.884Z" style="fill:#fde3ba"/><path d="M100.444,101.047c.416-.469,10.06-12.108,19.8-12.722,7.471-.471,4.607,2.118.572,3.611a97.839,97.839,0,0,0-19.56,9.261A4.371,4.371,0,0,1,100.444,101.047Z" style="fill:#fde3ba"/><path d="M99.047,100.9c.1-.375,1.843-8.569,7.878-11.37,2.449-1.136,3.9.333,1.567,1.967-4.386,3.075-5.31,4.384-8.874,9.282A3.449,3.449,0,0,1,99.047,100.9Z" style="fill:#fde3ba"/><path d="M99.254,101.491c-.8.272-1.263.287-.72.714,1.039.818,3.541,2.768,4.352,4.386,2.913,5.813,6.8,6.852,6.8,6.852,1.355.5-1.281-4.169-3.193-8.256C104.974,101.942,99.254,101.491,99.254,101.491Z" style="fill:#fde3ba"/><path d="M68.7,67.536C68.5,66.461,54.8,39.167,48.183,32.911c-3.944-3.732-7.3-2.678-.8,7.367,5.739,8.871,21.067,27.877,20.794,27.353Z" style="fill:#fde3ba"/><path d="M69,68.007c-.712-.965-18.155-23.4-34.133-27.734-6.486-1.758-7.4,3.024-.476,6.2,13.033,5.976,20.323,10.214,34.186,21.591C68.693,68.156,69,68.007,69,68.007Z" style="fill:#fde3ba"/><path d="M39.335,86.457c-.713-.576-15.8-13.961-29.063-13.549-5.384.167-5.345,4.065.607,4.886,11.207,1.546,14.561,3.043,27.277,8.555C38.262,86.4,39.335,86.457,39.335,86.457Z" style="fill:#fde3ba"/><path d="M37.6,86.161c-.839.013-20.247-7.541-32.178,9-4.406,6.11,4.986.149,9.721-2.871,12.357-7.883,12.551-5.755,22.373-5.911C37.627,86.381,37.6,86.161,37.6,86.161Z" style="fill:#fde3ba"/><path d="M39.335,86.457c-.592-.022-12.209-.714-20.016,6.558-1.52,1.416-5.294,11.991-1.856,9.09,6.475-5.464,8.563-12.223,21.574-15.66A1.249,1.249,0,0,1,39.335,86.457Z" style="fill:#fde3ba"/><path d="M46.391,87.815c-.544-.021-11.179.2-18.323,6.26-1.391,1.18-4.823,10.017-1.675,7.6,5.926-4.551,8.973-10.535,20.907-13.37A7.449,7.449,0,0,0,46.391,87.815Z" style="fill:#fde3ba"/><path d="M43.832,87.694c-.332-.568-7.878-14.546-17.787-17.181-7.6-2.021-5.183,1.235-1.332,3.6,7.7,4.736,10.551,6.461,18.077,13.161C42.853,87.334,43.832,87.694,43.832,87.694Z" style="fill:#fde3ba"/><path d="M48.747,88.359c-.128-.387-2.463-9.258-8.971-11.81-2.642-1.035-4.067.6-1.519,2.163,4.8,2.946,5.832,4.647,9.884,9.556A3.51,3.51,0,0,0,48.747,88.359Z" style="fill:#fde3ba"/><path d="M68.037,66.959c-.77-.62-17.889-14.555-32.1-13.468-6.559.5-5.386,5.136.888,5.117a62.149,62.149,0,0,1,30.909,8.746C67.84,67.418,68.037,66.959,68.037,66.959Z" style="fill:#fde3ba"/><path d="M70.974,71.347c-.741-.466-18.18-11.746-30.462-9.444-5.67,1.063-4.134,4.976,1.34,4.359,8.9-1,20.5,1.569,28.9,5.456C70.853,71.763,70.974,71.347,70.974,71.347Z" style="fill:#fde3ba"/><path d="M69.5,69.5c-.169-.56-4.5-13.75,3.717-22.8,3.79-4.18,7.379-2.951,4.169,1.094-5.221,6.578-7.76,15.235-7.376,21.555C70.01,69.42,69.5,69.5,69.5,69.5Z" style="fill:#fde3ba"/><path d="M72.1,74.145c-3.331-3.316-13.257-4.269-15.9-1.012-4.547,5.594-1.3,4.124,3.321,3.288,4.719-.853,9.437-1.707,12.259-1.106C73.764,75.739,72.1,74.145,72.1,74.145Z" style="fill:#fde3ba"/><path d="M72.613,74.547c.58-3.808,6.638-9.289,9.956-8.445,5.7,1.451,2.852,2.075-.586,3.785-3.514,1.747-7.028,3.5-8.59,5.27C72.29,76.41,72.613,74.547,72.613,74.547Z" style="fill:#fde3ba"/><path d="M70.581,67.67c-.527-3.944,3.138-9.825,7.3-9.554,7.964.517,10.809,6.8,2.041,4.29-3.3-.945-6.685,4.7-7.9,10C71.563,74.422,70.581,67.67,70.581,67.67Z" style="fill:#fde3ba"/><path d="M68.7,68.4a163.141,163.141,0,0,1-10.43-27.87c-1.822-6.893,5.793-3.826,7.29,4.238,1.809,9.746.159,14.16,3.321,23.33C68.917,68.207,68.7,68.4,68.7,68.4Z" style="fill:#fde3ba"/><path d="M110.967,103.215a24.027,24.027,0,0,0-6.322-2.149,25.34,25.34,0,0,0-3.356-.428,15.894,15.894,0,0,0-3.444.133,7.932,7.932,0,0,0-3.421,1.276,4.31,4.31,0,0,0-1.85,3.522c-.035,2.267.039,4.478.138,6.7.229,4.442.607,8.862,1.04,13.274.469,4.407.961,8.81,1.538,13.2,1.164,8.781,2.489,17.538,4.081,26.251q1.167,6.539,2.579,13.036c.486,2.162.118-3.784.675-1.636.278,1.074.561,2.147.878,3.211.163.531.331,1.061.518,1.585.095.262.193.523.306.778a3.845,3.845,0,0,0,.188.374,1.035,1.035,0,0,0,.124.171c.04.051.134.1.183.034-.057.058-.13,0-.165-.049a1.065,1.065,0,0,1-.1-.178,3.634,3.634,0,0,1-.14-.387c-.081-.262-.147-.53-.21-.8-.124-.537-.228-1.079-.327-1.621q-.3-1.627-.555-3.265c-.337-2.183.176,3.744-.125,1.555-.635-4.372-1.213-8.753-1.818-13.128-1.168-8.758-2.36-17.512-3.466-26.272-.555-4.38-1.129-8.757-1.622-13.141-.522-4.38-1.014-8.764-1.394-13.145-.2-2.185-.368-4.392-.433-6.547a2.642,2.642,0,0,1,.981-2.2,6.442,6.442,0,0,1,2.669-1.2,20.684,20.684,0,0,1,6.408-.289,28.253,28.253,0,0,1,3.249.471A22.939,22.939,0,0,1,110.967,103.215Z" style="fill:#fde3ba"/><path d="M57.288,92.28c.685.658,1.188.9.247,1.037-1.8.255-6.12.853-8.29,1.981-7.795,4.053-12.953,3.095-12.953,3.095-1.9-.207,4.686-3.31,10.014-6.227C50.538,89.85,57.288,92.28,57.288,92.28Z" style="fill:#fde3ba"/><path d="M106.151,176.677c-1.883-10.71-3.368-13.221-5.925-23.787-1.257-5.288-2.645-10.544-4.039-15.8-1.42-5.249-2.928-10.474-4.475-15.69-1.593-5.2-3.239-10.389-5-15.541-1.8-5.14-3.637-10.269-5.718-15.31A150.239,150.239,0,0,0,74.08,75.712a63.487,63.487,0,0,0-4.363-6.95,28.135,28.135,0,0,0-2.649-3.142,12.705,12.705,0,0,0-3.247-2.479,12.509,12.509,0,0,1,2.95,2.75,28.223,28.223,0,0,1,2.336,3.288,67.875,67.875,0,0,1,3.808,7.127c1.155,2.439,2.22,4.921,3.226,7.429S78.13,88.76,79.057,91.3s1.815,5.1,2.7,7.651,1.728,5.13,2.559,7.706q2.517,7.722,4.843,15.512c1.59,5.18,3.1,10.386,4.6,15.6,1.529,5.2,2.966,10.431,4.458,15.648Z" style="fill:#fde3ba"/><path d="M104.493,178.672c-.609-5.525-.775-2.891-1.931-8.333-1.191-5.436-2.573-10.836-4.2-16.168-1.59-5.345-3.486-10.6-5.552-15.788a153.426,153.426,0,0,0-7.155-15.173q-2.022-3.684-4.306-7.225c-1.529-2.352-3.115-4.674-4.849-6.89A72.553,72.553,0,0,0,64.764,96.983a54.528,54.528,0,0,0-6.962-4.8,49.556,49.556,0,0,0-7.665-3.549,43.345,43.345,0,0,0-16.528-2.566A47.581,47.581,0,0,1,49.662,89.85a52,52,0,0,1,13.771,8.729c.517.445,1.033.889,1.524,1.364s1.006.921,1.481,1.412l1.448,1.446,1.4,1.5c1.838,2.02,3.57,4.138,5.209,6.329a111.581,111.581,0,0,1,8.826,13.863,160.411,160.411,0,0,1,7.167,14.86c2.172,5.066,4.1,10.239,5.905,15.459q2.668,7.844,4.907,15.845C102.8,175.981,103.306,173.246,104.493,178.672Z" style="fill:#fde3ba"/><path d="M130.874,27.441a15.932,15.932,0,0,1,24.634-12.924A18.117,18.117,0,0,1,171.926,4.079a18.107,18.107,0,0,1,14.349,7.014A17.669,17.669,0,0,1,190,21.955c0,.384-.034.76-.058,1.138.359-.026.717-.054,1.082-.054a14.836,14.836,0,1,1,0,29.671H133.827a12.79,12.79,0,0,1-2.953-25.269Z" style="fill:#e3f1fc"/><path d="M167.378,49.627a7.717,7.717,0,0,1,11.933-6.26,8.774,8.774,0,0,1,7.953-5.056,8.772,8.772,0,0,1,6.95,3.4,8.561,8.561,0,0,1,1.8,5.262c0,.186-.016.368-.028.551.174-.012.347-.026.524-.026a7.186,7.186,0,1,1,0,14.372h-27.7a6.2,6.2,0,0,1-1.431-12.24Z" style="fill:#c7e2f9"/><path d="M167.378,49.627a7.717,7.717,0,0,1,11.933-6.26,8.774,8.774,0,0,1,7.953-5.056,8.772,8.772,0,0,1,6.95,3.4,8.561,8.561,0,0,1,1.8,5.262c0,.186-.016.368-.028.551.174-.012.347-.026.524-.026a7.186,7.186,0,1,1,0,14.372h-27.7a6.2,6.2,0,0,1-1.431-12.24Z" style="fill:#c7e2f9;opacity:0.5"/><path d="M133.74,194.133l.039-36.879.037-36.833a5.107,5.107,0,0,1,.052-.684c-.059,0-.115-.006-.174,0l-7.59.8-75.081,7.947a4.512,4.512,0,0,1,.087.463,4.645,4.645,0,0,1,.037.572l.075,56.162v.456h0a4.77,4.77,0,0,1-.038.605c-.009.063-.025.121-.036.183-.017.1-.033.195-.057.288l74.55,6.971,7.576.708a4.136,4.136,0,0,0,.579,0,5.378,5.378,0,0,1-.057-.759Zm-30.7-50.8-42.862-.267c-.029,0-.055-.008-.083-.009a3.465,3.465,0,0,1-.6-.064c-.071-.015-.134-.045-.2-.063a3.756,3.756,0,0,1-.433-.137c-.076-.033-.144-.08-.217-.118a3.5,3.5,0,0,1-.356-.2c-.074-.051-.138-.114-.208-.17a3.593,3.593,0,0,1-.292-.244c-.067-.066-.12-.144-.181-.217a3.461,3.461,0,0,1-.231-.282c-.055-.081-.095-.173-.143-.259a3.237,3.237,0,0,1-.168-.313c-.04-.093-.063-.194-.094-.291a3.335,3.335,0,0,1-.1-.34c-.021-.1-.024-.209-.036-.314a3.258,3.258,0,0,1-.037-.328c0-.024,0-.048,0-.071a3.349,3.349,0,0,1,.074-.684,3.4,3.4,0,0,1,3.354-2.69H60.4l63.639.4c.024,0,.046.007.07.008a3.5,3.5,0,0,1,.611.065c.077.016.146.048.221.069a3.561,3.561,0,0,1,.414.131c.082.035.155.086.233.127a3.512,3.512,0,0,1,.341.187c.078.054.146.121.22.18.094.077.193.147.279.233.071.072.129.155.194.233s.153.171.218.266.1.183.152.274.115.194.16.3.067.206.1.309.075.211.1.322.026.222.038.333.034.2.035.31c0,.023,0,.046,0,.069v0h0a3.357,3.357,0,0,1-.522,1.765,3.452,3.452,0,0,1-.386.5,3.375,3.375,0,0,1-2.52,1.111ZM60.061,161.174c-.027,0-.053-.008-.08-.009a3.5,3.5,0,0,1-.6-.064c-.072-.015-.137-.046-.207-.065a3.231,3.231,0,0,1-.428-.136c-.078-.033-.148-.081-.223-.121a3.381,3.381,0,0,1-.35-.192c-.077-.052-.142-.117-.214-.175a3.447,3.447,0,0,1-.286-.239c-.068-.067-.122-.147-.184-.22a3.382,3.382,0,0,1-.228-.279c-.056-.082-.1-.173-.144-.259a3.376,3.376,0,0,1-.168-.314c-.039-.092-.062-.191-.093-.287a3.336,3.336,0,0,1-.1-.344c-.021-.1-.023-.206-.036-.31a3.317,3.317,0,0,1-.037-.331c0-.024,0-.048,0-.072a3.387,3.387,0,0,1,1.3-2.65,3.4,3.4,0,0,1,.8-.465,3.458,3.458,0,0,1,.707-.2,3.524,3.524,0,0,1,.621-.058l21.234.132,42.584.266a3.474,3.474,0,0,1,.682.073c.06.013.114.038.172.054a3.463,3.463,0,0,1,.463.147c.072.031.136.075.206.111a3.541,3.541,0,0,1,.368.2c.072.049.134.112.2.166a3.363,3.363,0,0,1,.3.248c.065.065.117.142.177.212a3.427,3.427,0,0,1,.236.287c.053.08.092.169.139.253a3.369,3.369,0,0,1,.172.319c.039.092.061.191.092.286a3.14,3.14,0,0,1,.105.346c.021.1.024.206.036.309s.036.218.038.332c0,.024,0,.047,0,.071h0a3.376,3.376,0,0,1-.593,1.895,3.459,3.459,0,0,1-.419.5,3.517,3.517,0,0,1-.507.411,3.4,3.4,0,0,1-1.909.568Zm21.112,19.369-21.233-.132a3.418,3.418,0,0,1-.683-.073c-.066-.014-.126-.042-.192-.06a3.444,3.444,0,0,1-.442-.14c-.076-.033-.143-.079-.216-.117a3.653,3.653,0,0,1-.358-.2c-.074-.05-.137-.114-.207-.17a3.27,3.27,0,0,1-.292-.243c-.067-.067-.121-.145-.182-.217-.078-.093-.162-.182-.231-.283-.054-.081-.094-.171-.142-.257a3.278,3.278,0,0,1-.169-.315c-.04-.094-.063-.195-.095-.293a3.476,3.476,0,0,1-.1-.338c-.021-.1-.024-.211-.036-.317s-.035-.213-.037-.325c0-.023,0-.047,0-.071a3.428,3.428,0,0,1,.074-.684,3.472,3.472,0,0,1,3.354-2.69l63.818.4a3.329,3.329,0,0,1,.682.073c.065.013.125.041.189.059a3.352,3.352,0,0,1,.446.141c.076.032.143.079.215.117a3.254,3.254,0,0,1,.358.2c.075.051.139.116.21.172a3.54,3.54,0,0,1,.29.242c.067.067.122.147.183.22a3.394,3.394,0,0,1,.229.279c.055.082.1.174.145.261a3.309,3.309,0,0,1,.166.311c.041.095.064.2.1.3a3.414,3.414,0,0,1,.1.335c.022.106.025.217.037.327a2.987,2.987,0,0,1,.036.314c0,.024,0,.047,0,.071v0a3.347,3.347,0,0,1-.374,1.5,3.553,3.553,0,0,1-.318.514,3.42,3.42,0,0,1-.627.645,3.3,3.3,0,0,1-.781.458,3.406,3.406,0,0,1-1.328.258Z" style="fill:#c8c6c4"/><path d="M47.333,157.82,47.3,129.453h0a4.6,4.6,0,0,1,.035-.556,7.847,7.847,0,0,0-6.531,7.58l.051,42.885a7.78,7.78,0,0,0,6.6,7.5,4.59,4.59,0,0,1-.075-.789Z" style="fill:#c8c6c4"/><path d="M126.9,141.857a3.357,3.357,0,0,0,.522-1.765h0v0c0-.023,0-.046,0-.069,0-.106-.024-.206-.035-.31s-.016-.225-.038-.333-.065-.215-.1-.322-.057-.21-.1-.309-.1-.2-.16-.3-.094-.187-.152-.274-.144-.178-.218-.266-.123-.161-.194-.233c-.086-.086-.185-.156-.279-.233-.074-.059-.142-.126-.22-.18a3.512,3.512,0,0,0-.341-.187c-.078-.041-.151-.092-.233-.127a3.561,3.561,0,0,0-.414-.131c-.075-.021-.144-.053-.221-.069a3.5,3.5,0,0,0-.611-.065c-.024,0-.046-.007-.07-.008l-63.639-.4h-.179a3.4,3.4,0,0,0-3.354,2.69,3.349,3.349,0,0,0-.074.684c0,.023,0,.047,0,.071a3.258,3.258,0,0,0,.037.328c.012.105.015.212.036.314a3.335,3.335,0,0,0,.1.34c.031.1.054.2.094.291a3.237,3.237,0,0,0,.168.313c.048.086.088.178.143.259a3.461,3.461,0,0,0,.231.282c.061.073.114.151.181.217a3.593,3.593,0,0,0,.292.244c.07.056.134.119.208.17a3.5,3.5,0,0,0,.356.2c.073.038.141.085.217.118a3.756,3.756,0,0,0,.433.137c.069.018.132.048.2.063a3.465,3.465,0,0,0,.6.064c.028,0,.054.009.083.009l42.862.267,20.955.131a3.375,3.375,0,0,0,2.52-1.111A3.452,3.452,0,0,0,126.9,141.857Z" style="fill:#b3afab"/><path d="M126.294,160.593a3.459,3.459,0,0,0,.419-.5,3.376,3.376,0,0,0,.593-1.895h0c0-.024,0-.047,0-.071,0-.114-.026-.221-.038-.332s-.015-.209-.036-.309a3.14,3.14,0,0,0-.105-.346c-.031-.095-.053-.194-.092-.286a3.369,3.369,0,0,0-.172-.319c-.047-.084-.086-.173-.139-.253a3.427,3.427,0,0,0-.236-.287c-.06-.07-.112-.147-.177-.212a3.363,3.363,0,0,0-.3-.248c-.068-.054-.13-.117-.2-.166a3.541,3.541,0,0,0-.368-.2c-.07-.036-.134-.08-.206-.111a3.463,3.463,0,0,0-.463-.147c-.058-.016-.112-.041-.172-.054a3.474,3.474,0,0,0-.682-.073l-42.584-.266L60.1,154.384a3.524,3.524,0,0,0-.621.058,3.458,3.458,0,0,0-.707.2,3.4,3.4,0,0,0-.8.465,3.387,3.387,0,0,0-1.3,2.65c0,.024,0,.048,0,.072a3.317,3.317,0,0,0,.037.331c.013.1.015.209.036.31a3.336,3.336,0,0,0,.1.344c.031.1.054.195.093.287a3.376,3.376,0,0,0,.168.314c.048.086.088.177.144.259a3.382,3.382,0,0,0,.228.279c.062.073.116.153.184.22a3.447,3.447,0,0,0,.286.239c.072.058.137.123.214.175a3.381,3.381,0,0,0,.35.192c.075.04.145.088.223.121a3.231,3.231,0,0,0,.428.136c.07.019.135.05.207.065a3.5,3.5,0,0,0,.6.064c.027,0,.053.009.08.009l63.817.4a3.4,3.4,0,0,0,1.909-.568A3.517,3.517,0,0,0,126.294,160.593Z" style="fill:#b3afab"/><path d="M125.866,180.093a3.42,3.42,0,0,0,.627-.645,3.553,3.553,0,0,0,.318-.514,3.347,3.347,0,0,0,.374-1.5v0c0-.024,0-.047,0-.071a2.987,2.987,0,0,0-.036-.314c-.012-.11-.015-.221-.037-.327a3.414,3.414,0,0,0-.1-.335c-.032-.1-.055-.2-.1-.3a3.309,3.309,0,0,0-.166-.311c-.049-.087-.09-.179-.145-.261a3.394,3.394,0,0,0-.229-.279c-.061-.073-.116-.153-.183-.22a3.54,3.54,0,0,0-.29-.242c-.071-.056-.135-.121-.21-.172a3.254,3.254,0,0,0-.358-.2c-.072-.038-.139-.085-.215-.117a3.352,3.352,0,0,0-.446-.141c-.064-.018-.124-.046-.189-.059a3.329,3.329,0,0,0-.682-.073l-63.818-.4a3.408,3.408,0,0,0-1.133.2,3.422,3.422,0,0,0-2.221,2.49,3.428,3.428,0,0,0-.074.684c0,.024,0,.048,0,.071,0,.112.025.217.037.325s.015.214.036.317a3.476,3.476,0,0,0,.1.338c.032.1.055.2.095.293a3.278,3.278,0,0,0,.169.315c.048.086.088.176.142.257.069.1.153.19.231.283.061.072.115.15.182.217a3.27,3.27,0,0,0,.292.243c.07.056.133.12.207.17a3.653,3.653,0,0,0,.358.2c.073.038.14.084.216.117a3.444,3.444,0,0,0,.442.14c.066.018.126.046.192.06a3.418,3.418,0,0,0,.683.073l21.233.132,42.584.266a3.406,3.406,0,0,0,1.328-.258A3.3,3.3,0,0,0,125.866,180.093Z" style="fill:#b3afab"/><path d="M51.185,186.746a4.77,4.77,0,0,0,.038-.605h0v-.456l-.075-56.162a4.645,4.645,0,0,0-.037-.572,4.512,4.512,0,0,0-.087-.463l-3.341.354c-.119.013-.234.037-.352.055,0-.016,0-.033,0-.049,0,.016,0,.033,0,.049a4.6,4.6,0,0,0-.035.556h0l.038,28.367.038,28.251a4.59,4.59,0,0,0,.075.789c.111.015.219.037.331.047l3.315.31c-.007.029-.01.062-.018.09.008-.028.012-.06.018-.09.024-.093.04-.191.057-.288C51.16,186.867,51.176,186.809,51.185,186.746Z" style="fill:#b3afab"/><path d="M136.693,198.107h.061a2.245,2.245,0,0,0,.273-.041,2.038,2.038,0,0,0,.285-.042,2.261,2.261,0,0,0,.291-.116,2.414,2.414,0,0,0,.257-.109,2.775,2.775,0,0,0,.271-.192c.075-.056.155-.1.226-.165a3.2,3.2,0,0,0,.242-.263c.064-.071.133-.134.191-.212a3.732,3.732,0,0,0,.206-.329c.05-.083.107-.158.152-.246a4.2,4.2,0,0,0,.164-.4c.035-.087.077-.168.106-.26.05-.158.082-.328.117-.5.016-.081.042-.155.055-.237a5.185,5.185,0,0,0,.06-.787l.076-73.713h0a5.1,5.1,0,0,0-.191-1.363,4.65,4.65,0,0,0-.243-.66,3.351,3.351,0,0,0-1.588-1.734,2.334,2.334,0,0,0-.375-.135,2.282,2.282,0,0,0-.554-.082h-.062a2.217,2.217,0,0,0-.283.041,2.071,2.071,0,0,0-.275.041,2.433,2.433,0,0,0-.3.118,1.4,1.4,0,0,0-.526.3c-.074.055-.153.1-.224.164a3.234,3.234,0,0,0-.243.264c-.063.07-.132.132-.19.21-.077.1-.141.222-.21.336-.048.08-.1.153-.147.239a4.1,4.1,0,0,0-.168.408c-.034.086-.075.164-.1.253a4.965,4.965,0,0,0-.118.5c-.016.078-.041.15-.053.23-.006.034,0,.07-.009.1a5.107,5.107,0,0,0-.052.684l-.037,36.833-.039,36.879h0a5.378,5.378,0,0,0,.057.759,4.938,4.938,0,0,0,.174.777c.039.123.094.233.142.35s.079.221.13.321a3.887,3.887,0,0,0,.243.419,3.485,3.485,0,0,0,.6.686,3.076,3.076,0,0,0,.349.261,2.367,2.367,0,0,0,1.253.4Z" style="fill:#b3afab"/><path d="M157.454,145.357l11.674-3.225a.979.979,0,0,1,1.007.311,1.01,1.01,0,0,1,.207.4l4.581,17.42a1.02,1.02,0,0,1-.705,1.24l-11.674,3.217,1.468,5.584,11.673-3.218c4.743-1.31,5.138-4.118,3.872-8.934l-4.416-16.794c-1.744-6.036-3-6.2-8.051-4.883l-11.223,3.1v0Z" style="fill:#b3afab"/><path d="M139.932,121.535l19.02,69.474a5.427,5.427,0,0,0,6.653,3.744,5.334,5.334,0,0,0,3.843-6.531l-13.58-49.6v0l-5.438-19.867A5.428,5.428,0,0,0,143.775,115,5.334,5.334,0,0,0,139.932,121.535Z" style="fill:#c8c6c4"/><path d="M41.98,202.135c-6.348.468-13.95,2.185-19.54-1.738-5.233-3.672-5.568-10.187-1.62-14.959,2.058-2.489,5.833.8,3.778,3.288-2.582,3.121-1.569,6.664,1.982,8.347,2.049.971,4.454.824,6.655.682,2.8-.181,5.6-.41,8.4-.617,3.214-.237,3.565,4.759.346,5Z" style="fill:url(#New_Gradient_Swatch_copy_2)"/><path d="M68.7,166.418c-1.5-6.758-1.582-10.969-2.83-17.355l-2.189-9.926-5.219,2.614a9.089,9.089,0,0,0-3.98-.106,20.18,20.18,0,0,0-2.409.769L46.928,141.1s.725,5.4.906,9.587c.314,7.251-1.416,12.647-3.169,17.554-2.611,7.308-8.875,13.311-9.851,18.5-1.13,6.008,1.766,14.445,7.647,15.8,3.1.715,11.178.25,15.86-.131,5.235-.426,8.355-.873,11.794-1.269,3.212-.371,8.184-7.176,4.832-16.966C73.463,179.845,70.635,175.105,68.7,166.418Z" style="fill:#fed494"/><ellipse cx="54.241" cy="147.707" rx="1.079" ry="1.234" transform="translate(-19.339 8.619) rotate(-7.715)" style="fill:#605d5a"/><ellipse cx="62.182" cy="146.632" rx="1.079" ry="1.234" transform="translate(-19.123 9.675) rotate(-7.715)" style="fill:#605d5a"/><path d="M59.369,152.908a.428.428,0,0,1-.423-.37l-.255-1.85a.428.428,0,0,1,.847-.117l.255,1.851a.428.428,0,0,1-.365.482C59.408,152.906,59.388,152.908,59.369,152.908Z" style="fill:#605d5a"/><path d="M57.278,149.268c-.056-.6.714-.79,1.452-.857s1.486-.12,1.541.48a1.811,1.811,0,0,1-1.342,1.691A1.742,1.742,0,0,1,57.278,149.268Z" style="fill:#605d5a"/><path d="M59.806,203.42h0a2.518,2.518,0,0,1-2.874-2.085l-5.187-15.674c-.217-1.363,3.294-3.714,4.657-3.931l.045.591c1.363-.217,4.286.312,4.5,1.675l.94,16.55A2.518,2.518,0,0,1,59.806,203.42Z" style="fill:url(#linear-gradient)"/><path d="M66.763,202.937h0a2.519,2.519,0,0,0,2.559-2.462l2.972-16.24c.027-1.38-3.776-3.224-5.156-3.251l.037.592c-1.38-.027-4.2.9-4.229,2.282l1.356,16.52A2.518,2.518,0,0,0,66.763,202.937Z" style="fill:url(#linear-gradient-2)"/></svg>