<svg xmlns="http://www.w3.org/2000/svg" data-name="Layer 1" viewBox="0 0 300 208">
  <defs>
    <linearGradient id="a" x1="13.11" x2="258.43" y1="94.78" y2="174.49" gradientUnits="userSpaceOnUse">
      <stop offset=".07" stop-color="#fff"/>
      <stop offset=".17" stop-color="#dfdfdf"/>
      <stop offset=".48" stop-color="#818181"/>
      <stop offset=".73" stop-color="#3b3b3b"/>
      <stop offset=".91" stop-color="#101010"/>
      <stop offset="1"/>
    </linearGradient>
  </defs>
  <title>
    Sites web
  </title>
  <path fill="#eaeae9" d="M259.31 181.13l-45.96-27.22V39.03l45.96 15.7v126.4"/>
  <path fill="#fff" d="M181.59 42.64h31.76l37.26 12.82-28.4.81-40.62-13.63"/>
  <path fill="#f4f4f4" d="M209.02 43.81l32.42 11.91 2.95-.09-35.38-12.99.01 1.17M201.74 43.73l33.14 12.18 1.06-.03.21-.59-34.44-12.65.03 1.09M195.42 43.72l32.29 11.87.35-.96-32.65-11.99.01 1.08M222.35 181.13l-45.96-27.22V39.03l45.96 15.7v126.4"/>
  <path fill="#fff" d="M144.63 42.64h31.76l37.26 12.82-28.4.81-40.62-13.63"/>
  <path fill="#f4f4f4" d="M172.06 43.81l32.42 11.91 2.95-.09-35.38-12.99.01 1.17M164.78 43.73l33.14 12.18 1.06-.03.21-.59-34.44-12.65.03 1.09M158.46 43.72l32.29 11.87.35-.96-32.65-11.99.01 1.08"/>
  <path fill="#c1c1c1" d="M185.01 181.13l-45.96-27.22V39.03l45.96 15.7v126.4"/>
  <path fill="#fff" d="M107.28 42.64h31.77l37.26 12.82-28.41.81-40.62-13.63"/>
  <path fill="#f4f4f4" d="M134.72 43.81l32.41 11.91 2.95-.09-35.37-12.99.01 1.17M127.44 43.73l33.14 12.18 1.05-.03.22-.59-34.44-12.65.03 1.09M121.11 43.72l32.3 11.87.35-.96-32.65-11.99v1.08"/>
  <path fill="url(#a)" d="M256.2 119.08L5.69 117.62l104.87 63.51 145.64.22v-62.27" opacity=".2"/>
  <path fill="#eaeae9" d="M147.66 181.13l-45.96-27.22V39.03l45.96 15.7v126.4"/>
  <path fill="#c1c1c1" d="M147.66 54.73h37.1v126.41h-37.1z"/>
  <path fill="#fff" d="M69.94 42.64h31.76l37.26 12.82-28.4.81-40.62-13.63"/>
  <path fill="#eaeae9" d="M221.87 54.73h37.1v126.41h-37.1zM110.96 181.13L65 153.91V39.03l45.58 15.7.38 126.4"/>
  <path fill="#f4f4f4" d="M110.56 54.73h37.1v126.41h-37.1z"/>
  <circle cx="129.43" cy="68.04" r="2.28" fill="#c1c1c1" opacity=".63"/>
  <path fill="#c1c1c1" d="M133 87.11a3.62 3.62 0 0 0-7.07 0H120v63.46h18.78V87.11z" opacity=".63"/>
  <circle cx="129.43" cy="168.22" r="2.28" fill="#c1c1c1" opacity=".63"/>
  <path fill="#f4f4f4" d="M97.37 43.81l32.42 11.91 2.95-.09-35.38-12.99.01 1.17M90.09 43.73l33.14 12.18 1.06-.03.21-.59-34.44-12.65.03 1.09M83.77 43.72l32.29 11.87.35-.96-32.65-11.99.01 1.08"/>
  <path fill="#fff" d="M122.13 89.36h14.61v59.07h-14.61z"/>
  <circle cx="166.3" cy="68.04" r="2.28" fill="#eaeae9"/>
  <path fill="#eaeae9" d="M169.9 87.11a3.62 3.62 0 0 0-7.07 0h-5.93v63.46h18.78V87.11z"/>
  <circle cx="166.3" cy="168.22" r="2.28" fill="#eaeae9"/>
  <path fill="#fff" d="M158.99 89.36h14.61v59.07h-14.61z"/>
  <path fill="#f4f4f4" d="M184.77 54.73h37.1v126.41h-37.1z"/>
  <circle cx="203.32" cy="68.04" r="2.28" fill="#c1c1c1" opacity=".63"/>
  <path fill="#c1c1c1" d="M206.92 87.11a3.62 3.62 0 0 0-7.07 0h-5.93v63.46h18.78V87.11z" opacity=".63"/>
  <circle cx="203.32" cy="168.22" r="2.28" fill="#c1c1c1" opacity=".63"/>
  <path fill="#fff" d="M196.01 89.36h14.61v59.07h-14.61z"/>
  <circle cx="240.42" cy="68.04" r="2.28" fill="#c1c1c1" opacity=".63"/>
  <path fill="#c1c1c1" d="M244 87.11a3.62 3.62 0 0 0-7.07 0H231v63.46h18.78V87.11z" opacity=".63"/>
  <circle cx="240.42" cy="168.22" r="2.28" fill="#c1c1c1" opacity=".63"/>
  <path fill="#fff" d="M233.12 89.36h14.61v59.07h-14.61z"/>
</svg>