<svg xmlns="http://www.w3.org/2000/svg" data-name="Layer 1" viewBox="0 0 208 208">
  <defs>
    <linearGradient id="a" x1="10.98" x2="153.21" y1="103.76" y2="149.98" gradientUnits="userSpaceOnUse">
      <stop offset=".16" stop-color="#fff"/>
      <stop offset=".23" stop-color="#f6f6f6"/>
      <stop offset=".35" stop-color="#ddd"/>
      <stop offset=".5" stop-color="#b4b4b4"/>
      <stop offset=".67" stop-color="#7b7b7b"/>
      <stop offset=".87" stop-color="#333"/>
      <stop offset="1"/>
    </linearGradient>
  </defs>
  <title>
    Recycle bin web
  </title>
  <path fill="url(#a)" d="M167.82 105.03L0 137.55l62.12 32.52 7.33-15.42 31.45 11.09 66.92-60.71" opacity=".18"/>
  <path fill="#f4f4f4" d="M79.42 55.46s16.52 101.23 16.52 101.6c0 9.07 14.71 16.43 32.86 16.43s32.86-7.35 32.86-16.43l16.52-101.6z"/>
  <path fill="#eaeae9" d="M81.13 65.81C89 72.41 107.35 77 128.79 77s39.89-4.65 47.7-11.26l1.68-10.33H79.42z"/>
  <ellipse cx="128.79" cy="55.85" fill="#f4f4f4" rx="51.69" ry="18.35"/>
  <ellipse cx="128.79" cy="55.51" fill="#c1c1c1" rx="43.68" ry="13.46" opacity=".63"/>
  <path fill="#c1c1c1" d="M88 60.29c6.22 5.08 22.14 8.71 40.79 8.71s34.58-3.61 40.84-8.68c-6.26-5.07-22.18-8.68-40.84-8.68S94.22 55.22 88 60.29z" opacity=".72"/>
  <path fill="#c1c1c1" d="M96.68 64.63c8 2.67 19.41 4.34 32.11 4.34s24.13-1.67 32.11-4.34c-8-2.67-19.41-4.34-32.11-4.34S104.66 62 96.68 64.63z"/>
  <path fill="#eaeae9" d="M159.61 162.77l8.21-91.84-1.44-.13-8.38 93.79a14.86 14.86 0 0 0 1.61-1.82zM144.81 171.4l1.44-.43V75.21h-1.44zM126.39 173.44h1.44V75.53h-1.44zM108.62 74.21l-1.44.05 3.61 96.53 1.46.45zM92.41 70.8l-1.41.13 8.35 93.39a18.37 18.37 0 0 0 1.57 1.41z"/>
  <path fill="#fff" d="M128.79 169.49c-15.65 0-28.84-5.27-32.86-12.46 0 9.07 14.71 16.43 32.86 16.43s32.86-7.35 32.86-16.43c-4.01 7.19-17.2 12.46-32.86 12.46z"/>
  <path fill="#c1c1c1" d="M128.79 169.49c-15.65 0-28.84-5.27-32.86-12.46 0 9.07 14.71 16.43 32.86 16.43s32.86-7.35 32.86-16.43c-4.01 7.19-17.2 12.46-32.86 12.46z" opacity=".3"/>
  <path fill="#eaeae9" d="M81.46 75.91c-1.56-.23-6.49-1-8.09-.06 7.29 4.92 13.81 26.15 10.46 49.35-3.1 21.49-15.32 40-23.12 44.48.86.58 6.57.33 7.55.33 9.52.06 19.34-18.92 23.08-44.82s-.69-47.95-9.88-49.28z"/>
  <ellipse cx="67.92" cy="122.73" fill="#fff" rx="47.37" ry="16.82" transform="rotate(-81.79 67.91 122.73)"/>
  <path fill="#f4f4f4" d="M74.24 75.84a7.72 7.72 0 0 0-5.46 1.53c6.87 5.6 9.8 25.23 6.54 47.76-3 20.85-10.39 37.82-18 43a6.79 6.79 0 0 0 3.33 1.53c9.19 1.33 19.67-18.59 23.41-44.48s-.62-48.01-9.82-49.34z"/>
  <path fill="#f4f4f4" d="M64.17 91a109.69 109.69 0 0 0-8.22 29.52c-1.87 13-1.7 25 .1 33.91 3-2.47 6.87-15.14 9.11-30.69 2.53-17.49 2.08-32.07-.99-32.74z"/>
  <ellipse cx="61.14" cy="111.41" fill="#c1c1c1" rx="3.34" ry=".88" transform="rotate(-78.04 61.15 111.42)"/>
  <ellipse cx="58.57" cy="130.74" fill="#c1c1c1" rx="3.34" ry=".88" transform="rotate(-78.04 58.57 130.74)"/>
  <path fill="#eaeae9" d="M57.61 129.39c-3.31-.48-5.44-4.75-4.75-9.54s3.94-8.29 7.25-7.81a4.16 4.16 0 0 1 .59.13c.14-.83.28-1.67.43-2.49a5.53 5.53 0 0 0-.92-.22c-4.3-.62-8.51 3.91-9.4 10.13S52.68 131.34 57 132a5.54 5.54 0 0 0 1.33 0c.06-.85.13-1.71.21-2.58a4.23 4.23 0 0 1-.93-.03z"/>
  <path fill="#c1c1c1" d="M172.36 57.47l.39.39 4.19-3.92-.88-.78-3.7 4.31M171 59.44a1.63 1.63 0 0 1 1.63 1.63v.07a1.63 1.63 0 1 0-3-.87 1.63 1.63 0 0 1 1.37-.83z"/>
  <path fill="#c1c1c1" d="M171.79 57.95a1.63 1.63 0 0 1 1.63 1.63v.07a1.63 1.63 0 0 0-1.42-2.43 1.49 1.49 0 0 0-1.63 1.4 1.5 1.5 0 0 1 1.42-.67zM155.59 36.48l4.45-1.38v2.77l-4.45-1.39"/>
  <path fill="#c1c1c1" d="M186.87 52.61s12.45 8.78 13.38 8.85 4.63 1.19 4.79-1.74l-16.84-9.51z" opacity=".63"/>
  <path fill="#c1c1c1" d="M171.47 59.26l.39.39 4.19-3.93-.88-.77-3.7 4.31"/>
  <path fill="#c1c1c1" d="M176.25 51.45a2.73 2.73 0 0 1-1.5-.46 1.72 1.72 0 0 0-1.75 1.65l-.06 1.43a2.28 2.28 0 0 0 4.34.84l.31-1.39a1.72 1.72 0 0 0-1.34-2.07z"/>
  <path fill="#c1c1c1" d="M159.6 37.37a2 2 0 0 1-.16-.75c0-1.53 1.82-2.77 4.07-2.77a5.43 5.43 0 0 1 2.37.52 3.49 3.49 0 0 1 1.22.95 12.93 12.93 0 0 0 2 1.94 42 42 0 0 0 4 3c3.08 2-9 4.53-9 4.53s0-2.78-3.27-6.07a3.14 3.14 0 0 1-1-.94 1 1 0 0 1-.23-.41z" opacity=".63"/>
  <path fill="#c1c1c1" d="M204.63 58.4s-32.81-19.69-34.51-19.46-9.84 4.19-4 10.86 23.31 2.26 23.31 2.26l11.65 7.81s5.98.96 3.55-1.47z"/>
  <path fill="#f4f4f4" d="M189.47 52.06S171.71 41 169.9 41.32s-4.75 1.92-2.6 5.37 10.06 8.43 22.17 5.37z" opacity=".39"/>
  <circle cx="162.35" cy="35.93" r=".56" fill="#fff"/>
  <circle cx="162.35" cy="35.93" r=".26" fill="#c1c1c1" opacity=".63"/>
</svg>