<svg id="GRAPHICS" xmlns="http://www.w3.org/2000/svg" xmlns:xlink="http://www.w3.org/1999/xlink" width="208" height="208" viewBox="0 0 208 208"><defs><radialGradient id="radial-gradient" cx="2387.943" cy="120.54" fx="2396.1328462731167" r="8.378" gradientTransform="matrix(1, 0.02, -0.02, 1, -2238.303, -48.357)" gradientUnits="userSpaceOnUse"><stop offset="0" stop-color="#e1dfdd"/><stop offset="0.335" stop-color="#e1dfdd"/><stop offset="0.61" stop-color="#c6c4c2"/><stop offset="1" stop-color="#e1dfdd"/></radialGradient><radialGradient id="radial-gradient-3" cx="779.506" cy="84.099" r="28.576" gradientTransform="matrix(0.995, -0.104, 0.105, 1.003, -717.608, 143.499)" gradientUnits="userSpaceOnUse"><stop offset="0.338" stop-color="#797673"/><stop offset="0.513" stop-color="#979592"/><stop offset="0.701" stop-color="#b1afac"/><stop offset="0.869" stop-color="#c1bebc"/><stop offset="1" stop-color="#c6c4c2"/></radialGradient></defs><path d="M92.2,174.117c-47.886,39.353-121.684.072-75.328-71.3C47.6,55.5-.708,40.865,23.573,15.882c25.949-26.7,42.944-13.865,58.343-3.017,23.635,16.65,43.87,3.891,60.557-1.422s30.9,2.947,39.11,16.257c13.235,21.464-10.126,52.554-8.129,72.62,2.382,23.939,38.325,11.979,29.622,47.093C188.059,208,121.278,150.218,92.2,174.117Z" style="fill:#fce39c;opacity:0.30000000000000004"/><path d="M195.847,35.509a15.444,15.444,0,0,1,5.822-7.269.751.751,0,0,0,.055-1.26,18.166,18.166,0,0,1-5.847-7.878.945.945,0,0,0-1.75,0,18.182,18.182,0,0,1-5.847,7.878.751.751,0,0,0,.055,1.26,15.448,15.448,0,0,1,5.823,7.269A.925.925,0,0,0,195.847,35.509Z" style="fill:#f1f0ef"/><path d="M183.494,19.048a11.389,11.389,0,0,1,4.292-5.359.554.554,0,0,0,.04-.929,13.4,13.4,0,0,1-4.311-5.808.7.7,0,0,0-1.29,0,13.4,13.4,0,0,1-4.31,5.807.554.554,0,0,0,.04.929,11.385,11.385,0,0,1,4.293,5.359A.682.682,0,0,0,183.494,19.048Z" style="fill:#f1f0ef"/><path d="M14.817,65.168a11.489,11.489,0,0,0,4.22,5.322.591.591,0,0,1,.07.945,13.637,13.637,0,0,0-3.85,6.054.638.638,0,0,1-1.213.042,13.626,13.626,0,0,0-4.252-5.779A.591.591,0,0,1,9.8,70.8a11.489,11.489,0,0,0,3.848-5.6A.623.623,0,0,1,14.817,65.168Z" style="fill:#f1f0ef"/><path d="M20.826,78.458A6.744,6.744,0,0,0,23.3,81.581a.346.346,0,0,1,.041.554,8,8,0,0,0-2.259,3.553.375.375,0,0,1-.712.025,8.005,8.005,0,0,0-2.5-3.392.347.347,0,0,1,0-.556,6.741,6.741,0,0,0,2.259-3.284A.365.365,0,0,1,20.826,78.458Z" style="fill:#f1f0ef"/><path d="M126.216,29.4c.061-.369.112-.737.174-1.106-.062.368-.119.737-.179,1.105Z" style="fill:none"/><path d="M127.422,29.524l-.091-.009q4.672,6.077,9.483,12.157a538.633,538.633,0,0,0-5.16,62.142,2.077,2.077,0,0,1-2.336,2.033q-26.675-2.605-53.307-5.214a2.39,2.39,0,0,1-1.019-.353,2.474,2.474,0,0,0,2.051,1.58q26.632,2.609,53.307,5.214a2.078,2.078,0,0,0,2.336-2.033,538.891,538.891,0,0,1,5.16-62.143Q132.545,36.211,127.422,29.524Z" style="fill:#e1dfdd"/><path d="M126.211,29.4q-.811,4.916-1.537,9.832.721-4.917,1.542-9.831Z" style="fill:#e1dfdd"/><path d="M129.318,105.847a2.077,2.077,0,0,0,2.336-2.033,538.633,538.633,0,0,1,5.16-62.142L125.7,40.562a1.147,1.147,0,0,1-1.024-1.328q.72-4.917,1.537-9.832c.06-.368.117-.737.179-1.105L93.1,24.967l-9.031-.9A2.487,2.487,0,0,0,81.433,26.1q-.225,1.29-.442,2.58A541.785,541.785,0,0,0,73.81,98.152a2.422,2.422,0,0,0,1.182,2.128,2.39,2.39,0,0,0,1.019.353Q102.644,103.242,129.318,105.847ZM126.9,90.6q-23.266-2.143-46.5-4.288.066-1.083.139-2.166,23.227,2.144,46.483,4.289Q126.957,89.521,126.9,90.6ZM128,82.094q-23.216-2.253-46.4-4.5c.057-.722.115-1.446.175-2.168q23.172,2.253,46.377,4.5Q128.069,81.011,128,82.094Zm.628-8.285-46.331-4.3q.1-1.086.208-2.169,23.139,2.15,46.308,4.3Q128.714,72.726,128.623,73.809Zm.746-8.186q-23.137-2.148-46.246-4.3.118-1.084.241-2.169,23.1,2.151,46.224,4.3Q129.477,64.539,129.369,65.623Zm-43.706-16.2q.7-5.4,1.5-10.792A2.06,2.06,0,0,1,89.373,36.9l10.745,1.072a1.833,1.833,0,0,1,1.63,2.121q-.788,5.4-1.466,10.792a2,2,0,0,1-2.162,1.739L87.338,51.549A1.871,1.871,0,0,1,85.663,49.428Zm42.885,3.5q-.133,1.086-.262,2.17l-23.594-2.1q.135-1.087.273-2.171Z" style="fill:#fff"/><path d="M124.674,39.234a1.147,1.147,0,0,0,1.024,1.328l11.116,1.11Q132,35.591,127.331,29.515c-.312-.406-.63-.813-.941-1.218-.062.369-.113.737-.174,1.106Q125.4,34.319,124.674,39.234Z" style="fill:#c6c4c2"/><path d="M87.338,51.549,98.12,52.622a2,2,0,0,0,2.162-1.739q.678-5.394,1.466-10.792a1.833,1.833,0,0,0-1.63-2.121L89.373,36.9a2.06,2.06,0,0,0-2.207,1.738q-.805,5.4-1.5,10.792A1.871,1.871,0,0,0,87.338,51.549Z" style="fill:#c6c4c2"/><path d="M82.292,69.513l46.331,4.3q.09-1.084.185-2.169-23.169-2.145-46.308-4.3Q82.394,68.428,82.292,69.513Z" style="fill:#c6c4c2"/><path d="M83.123,61.324q23.109,2.151,46.246,4.3.108-1.083.219-2.169-23.127-2.149-46.224-4.3Q83.241,60.24,83.123,61.324Z" style="fill:#c6c4c2"/><path d="M81.6,77.59q23.184,2.253,46.4,4.5.074-1.084.152-2.168-23.2-2.252-46.377-4.5C81.71,76.144,81.652,76.868,81.6,77.59Z" style="fill:#c6c4c2"/><path d="M80.4,86.315Q103.635,88.46,126.9,90.6q.055-1.081.117-2.165-23.256-2.144-46.483-4.289Q80.464,85.231,80.4,86.315Z" style="fill:#c6c4c2"/><path d="M104.692,52.993l23.594,2.1q.129-1.084.262-2.17l-23.583-2.1Q104.826,51.907,104.692,52.993Z" style="fill:#c6c4c2"/><path d="M183.517,82.041a3.224,3.224,0,0,0-1.5-2.523,3.03,3.03,0,0,1,.5,1.523,231.666,231.666,0,0,1-5.5,60.01,3.407,3.407,0,0,1-3.455,2.6l-57.951-4.518a2.564,2.564,0,0,1-.978-.281,2.4,2.4,0,0,0,1.978,1.281l57.951,4.518a3.407,3.407,0,0,0,3.455-2.6A231.666,231.666,0,0,0,183.517,82.041Z" style="fill:#e1dfdd"/><path d="M173.567,143.654a3.407,3.407,0,0,0,3.455-2.6,231.666,231.666,0,0,0,5.5-60.01,3.03,3.03,0,0,0-.5-1.523,3.331,3.331,0,0,0-2.495-1.528q-29.607-2.265-59.261-4.521a2.4,2.4,0,0,0-2.677,2.606,230.847,230.847,0,0,1-4.184,60.013,2.477,2.477,0,0,0,1.24,2.767,2.564,2.564,0,0,0,.978.281Zm-1.021-5.084-11.553-.9h0l-29.566-2.307h0l-14.088-1.1A230.893,230.893,0,0,0,121.3,78.446q28.154,2.155,56.265,4.31A231.639,231.639,0,0,1,172.546,138.57Z" style="fill:#fff"/><path d="M121.3,78.446a230.893,230.893,0,0,1-3.958,55.817l14.088,1.1a31.055,31.055,0,0,1,5.931-2.98c1.835-.6,2.741-2.826,3.078-3.97a.856.856,0,0,1,.894-.606l1.233.131q.065-.588.125-1.178a2.4,2.4,0,0,0-.97-2.276c-.252-.138-.5-.284-.739-.439a17.374,17.374,0,0,1,1.079-31.139,9.274,9.274,0,0,1-.6-2.756,7.706,7.706,0,0,1,7.952-8.407,9.569,9.569,0,0,1,9.244,8.755,7.928,7.928,0,0,1-.86,4.1,16.78,16.78,0,0,1,7.9,14.444,15.98,15.98,0,0,1-.952,5.05c-.051.146-.123.284-.179.429-.147.375-.292.751-.471,1.111l-.016-.008a17.978,17.978,0,0,1-11.277,9.39,2.916,2.916,0,0,0-1.241,2.085q-.054.517-.111,1.034a2.211,2.211,0,0,0,.049.755l2.149.228a.693.693,0,0,1,.621.8,3.524,3.524,0,0,0,1.629,3.791c3.525,2.013,4.964,3.242,5.1,3.964l11.553.9a231.639,231.639,0,0,0,5.016-55.814Q149.449,80.6,121.3,78.446Z" style="fill:#f2f1f0"/><path d="M150.088,91.833c.123.013.245.028.367.043.493.066.983.146,1.466.252.087.019.172.045.258.066.388.091.771.2,1.149.314.176.054.351.109.525.168q.483.168.952.363c.364.148.719.311,1.071.482.079.039.159.077.238.117.3.153.6.313.887.484v.022c.264.152.539.288.795.453a7.928,7.928,0,0,0,.86-4.1,9.569,9.569,0,0,0-9.244-8.755,7.706,7.706,0,0,0-7.952,8.407,9.274,9.274,0,0,0,.6,2.756,16.278,16.278,0,0,1,6.486-1.182C149.063,91.734,149.577,91.776,150.088,91.833Z" style="fill:#b1ada9"/><path d="M153.2,124.765a3.551,3.551,0,0,0-.4.248,17.978,17.978,0,0,0,11.277-9.39,16.2,16.2,0,0,1-2.828-1.532A13.6,13.6,0,0,1,153.2,124.765Z" style="fill:#b1ada9"/><path d="M135.277,112.651a14,14,0,0,1,.488-3.083,16.014,16.014,0,0,1-3.835-1.932c.578-9,7.528-16.019,16.614-15.913a16.278,16.278,0,0,0-6.486,1.182,17.374,17.374,0,0,0-1.079,31.139A12.777,12.777,0,0,1,135.277,112.651Z" style="fill:#b1ada9"/><path d="M157,94.189a16.864,16.864,0,0,1,8.623,14.931,16.124,16.124,0,0,1-.884,4.971,15.98,15.98,0,0,0,.952-5.05A16.78,16.78,0,0,0,157.8,94.6c-.256-.165-.531-.3-.795-.453Z" style="fill:#b1ada9"/><path d="M151.448,128.132q.057-.516.111-1.034a2.916,2.916,0,0,1,1.241-2.085c-.139.039-.283.062-.423.1a13.491,13.491,0,0,1-5,.866,12.257,12.257,0,0,1-5.662-1.494,2.4,2.4,0,0,1,.97,2.276q-.061.59-.125,1.178l8.934.95A2.211,2.211,0,0,1,151.448,128.132Z" style="fill:#f2f1f0"/><path d="M151.448,128.132q.057-.516.111-1.034a2.916,2.916,0,0,1,1.241-2.085c-.139.039-.283.062-.423.1a13.491,13.491,0,0,1-5,.866,12.257,12.257,0,0,1-5.662-1.494,2.4,2.4,0,0,1,.97,2.276q-.061.59-.125,1.178l8.934.95A2.211,2.211,0,0,1,151.448,128.132Z" style="fill:url(#radial-gradient)"/><path d="M152.377,125.111c.14-.036.284-.059.423-.1a3.551,3.551,0,0,1,.4-.248C152.93,124.887,152.658,125.007,152.377,125.111Z" style="fill:#b1ada9"/><path d="M152.377,125.111c.14-.036.284-.059.423-.1a3.551,3.551,0,0,1,.4-.248C152.93,124.887,152.658,125.007,152.377,125.111Z" style="fill:url(#radial-gradient)"/><path d="M153.578,119.515a4.264,4.264,0,0,0,2.967-1.14,4.194,4.194,0,0,0,1.369-2.87,3.91,3.91,0,0,0-1.058-2.92,3.982,3.982,0,0,0-1.316-.93,4.044,4.044,0,0,0-1.525-.329,4.119,4.119,0,0,0-2.932,1.141,4.237,4.237,0,0,0-1.33,2.872,3.981,3.981,0,0,0,1.023,2.918A3.864,3.864,0,0,0,153.578,119.515Zm.957-5.531a2.252,2.252,0,0,1,1.583,2.106c-.013.16-.163.212-.335.233-.23.028-.744-.314-1-.42a4.2,4.2,0,0,0-2.443-.289c-.227.031-.529-.057-.446-.407A2.588,2.588,0,0,1,154.535,113.984Z" style="fill:#e1dfdd"/><path d="M138.278,114.227a3.927,3.927,0,0,0,3.846,4.177,4.266,4.266,0,0,0,4.317-4.01,3.927,3.927,0,0,0-3.274-4.1,16.588,16.588,0,0,1-1.993.141A4.22,4.22,0,0,0,138.278,114.227Zm4.471-2.017a2.252,2.252,0,0,1,1.583,2.106c-.013.16-.163.212-.336.233-.229.027-.743-.313-1-.419a4.184,4.184,0,0,0-2.443-.29c-.227.031-.529-.057-.446-.407A2.588,2.588,0,0,1,142.749,112.21Z" style="fill:#e1dfdd"/><path d="M152.377,125.111c.281-.1.553-.224.825-.346a13.6,13.6,0,0,0,8.047-10.674,17.057,17.057,0,0,1-7.046-10.358,16.067,16.067,0,0,1-8.868,6.134,5.172,5.172,0,0,1,2.141,2.937l1.714.227a5.4,5.4,0,0,1,4.865-2.921,5.172,5.172,0,0,1,3.691,1.632,5.074,5.074,0,0,1,1.379,3.787,5.452,5.452,0,0,1-1.782,3.722,5.537,5.537,0,0,1-3.855,1.478,5.044,5.044,0,0,1-1.953-.427,5.1,5.1,0,0,1-2.994-4.988,5.522,5.522,0,0,1,.178-1.114l-1.068-.141c0,.119.007.238,0,.359a5.55,5.55,0,0,1-5.612,5.2,5.069,5.069,0,0,1-4.973-5.417,5.476,5.476,0,0,1,1.913-3.889,15.839,15.839,0,0,1-3.215-.746,14,14,0,0,0-.488,3.083,12.777,12.777,0,0,0,5.7,11.393c.24.155.487.3.739.439a12.257,12.257,0,0,0,5.662,1.494A13.491,13.491,0,0,0,152.377,125.111Zm-6.018-2.742a2.252,2.252,0,0,1-1.583-2.106c.013-.159.163-.212.336-.233.229-.027.743.314,1,.42a4.179,4.179,0,0,0,2.443.289c.228-.031.53.057.446.408A2.585,2.585,0,0,1,146.359,122.369Z" style="fill:#e1dfdd"/><path d="M144.042,110.544a3.972,3.972,0,0,1,2.4,3.85,4.266,4.266,0,0,1-4.317,4.01,3.927,3.927,0,0,1-3.846-4.177,4.22,4.22,0,0,1,2.9-3.8c-.163,0-.324.018-.489.015a16.2,16.2,0,0,1-1.705-.133,5.476,5.476,0,0,0-1.913,3.889,5.069,5.069,0,0,0,4.973,5.417,5.55,5.55,0,0,0,5.612-5.2c.006-.121,0-.24,0-.359l-.65-.087q.1-.6.187-1.206l.288.038a5.172,5.172,0,0,0-2.141-2.937,16.518,16.518,0,0,1-2.168.424A3.951,3.951,0,0,1,144.042,110.544Z" style="fill:#b1ada9"/><path d="M149.134,114.256l-.415-.056a5.522,5.522,0,0,0-.178,1.114,5.1,5.1,0,0,0,2.994,4.988,5.044,5.044,0,0,0,1.953.427,5.537,5.537,0,0,0,3.855-1.478,5.452,5.452,0,0,0,1.782-3.722,5.074,5.074,0,0,0-1.379-3.787,5.172,5.172,0,0,0-3.691-1.632,5.4,5.4,0,0,0-4.865,2.921l.133.018Q149.23,113.652,149.134,114.256Zm1.949-1.789a4.119,4.119,0,0,1,2.932-1.141,4.044,4.044,0,0,1,1.525.329,3.982,3.982,0,0,1,1.316.93,3.91,3.91,0,0,1,1.058,2.92,4.194,4.194,0,0,1-1.369,2.87,4.264,4.264,0,0,1-2.967,1.14,3.864,3.864,0,0,1-2.8-1.258,3.981,3.981,0,0,1-1.023-2.918A4.237,4.237,0,0,1,151.083,112.467Z" style="fill:#b1ada9"/><path d="M147,113.972l.65.087,1.068.141.415.056q.1-.6.189-1.207l-.133-.018-1.714-.227-.288-.038Q147.1,113.369,147,113.972Z" style="fill:#b1ada9"/><path d="M155.068,93.209a17.827,17.827,0,0,1,1.936.98l0-.045v-.022c-.29-.171-.587-.331-.887-.484-.079-.04-.159-.078-.238-.117-.352-.171-.707-.334-1.071-.482q-.47-.195-.952-.363c-.174-.059-.349-.114-.525-.168-.378-.117-.761-.223-1.149-.314-.086-.021-.171-.047-.258-.066-.483-.106-.973-.186-1.466-.252-.122-.015-.244-.03-.367-.043-.511-.057-1.025-.1-1.544-.11-9.086-.106-16.036,6.91-16.614,15.913a16.014,16.014,0,0,0,3.835,1.932,15.839,15.839,0,0,0,3.215.746,16.2,16.2,0,0,0,1.705.133c.165,0,.326-.013.489-.015a17.182,17.182,0,0,0,4.161-.565,16.067,16.067,0,0,0,8.868-6.134,17.732,17.732,0,0,1-.45-3.7A16.918,16.918,0,0,1,155.068,93.209Z" style="fill:#b1ada9"/><path d="M157,94.189a17.827,17.827,0,0,0-1.936-.98,16.918,16.918,0,0,0-1.315,6.82,17.732,17.732,0,0,0,.45,3.7,17.057,17.057,0,0,0,7.046,10.358,16.2,16.2,0,0,0,2.828,1.532l.016.008c.179-.36.324-.736.471-1.111.056-.145.128-.283.179-.429a16.124,16.124,0,0,0,.884-4.971A16.864,16.864,0,0,0,157,94.189Z" style="fill:#b1ada9"/><path d="M149,121.147c.084-.351-.218-.439-.446-.408a4.179,4.179,0,0,1-2.443-.289c-.259-.106-.773-.447-1-.42-.173.021-.323.074-.336.233a2.252,2.252,0,0,0,1.583,2.106A2.585,2.585,0,0,0,149,121.147Z" style="fill:#b1ada9"/><path d="M152.337,115.614a4.2,4.2,0,0,1,2.443.289c.259.106.773.448,1,.42.172-.021.322-.073.335-.233a2.252,2.252,0,0,0-1.583-2.106,2.588,2.588,0,0,0-2.644,1.223C151.808,115.557,152.11,115.645,152.337,115.614Z" style="fill:#797673"/><path d="M140.551,113.84a4.184,4.184,0,0,1,2.443.29c.259.106.773.446,1,.419.173-.021.323-.073.336-.233a2.252,2.252,0,0,0-1.583-2.106,2.588,2.588,0,0,0-2.644,1.223C140.022,113.783,140.324,113.871,140.551,113.84Z" style="fill:#797673"/><path d="M155.9,133.705a3.524,3.524,0,0,1-1.629-3.791.693.693,0,0,0-.621-.8l-2.149-.228-8.934-.95-1.233-.131a.856.856,0,0,0-.894.606c-.337,1.144-1.243,3.37-3.078,3.97a31.055,31.055,0,0,0-5.931,2.98h0l29.566,2.307h0C160.86,136.947,159.421,135.718,155.9,133.705Z" style="fill:#c6c4c2"/><path d="M112.2,138.205a363.169,363.169,0,0,0-7.341-62.748,3.961,3.961,0,0,0-2.415-2.819,3.838,3.838,0,0,1,.961,1.831,363.169,363.169,0,0,1,7.341,62.748,3.82,3.82,0,0,1-3.4,3.812q-30.923,3.183-61.9,6.365a3.372,3.372,0,0,1-1.349-.129,3.15,3.15,0,0,0,2.8,1.117q30.981-3.18,61.9-6.366A3.818,3.818,0,0,0,112.2,138.205Z" style="fill:#e1dfdd"/><path d="M45.44,147.394q30.981-3.18,61.9-6.365a3.82,3.82,0,0,0,3.4-3.812,363.169,363.169,0,0,0-7.341-62.748,3.956,3.956,0,0,0-4.143-3.087L38.61,77.744a3.149,3.149,0,0,0-2.765,3.81,361.408,361.408,0,0,1,6.088,62.751,3.062,3.062,0,0,0,2.158,2.96A3.372,3.372,0,0,0,45.44,147.394Zm1.529-5.733c0-.031,0-.061,0-.093-.082-4.345-.256-8.7-.5-13.051a363.175,363.175,0,0,0-5.377-45.2l57.779-6.2q2.091,10.417,3.56,20.867a361.229,361.229,0,0,1,3.338,37.477Q76.4,138.56,46.969,141.661Z" style="fill:#fff"/><path d="M73.988,126c7.328-7.343,10.8-16.735,16.4-22.565q-7.078.746-14.159,1.488a7.547,7.547,0,0,1-6.442-2.558A7.877,7.877,0,0,1,67.9,98.239a7.109,7.109,0,0,1,6.135-8.213,8.546,8.546,0,0,1,6.949-5,9.99,9.99,0,0,1,10.059,6.058,6.406,6.406,0,0,1,6.483,5.452,6,6,0,0,1-.113,2.3,16.751,16.751,0,0,1,3.5-.749c.532-.056,1.035-.087,1.521-.106q-1.478-10.444-3.56-20.867l-57.779,6.2a363.175,363.175,0,0,1,5.377,45.2c6.34-4.962,10.891-8.792,15.381-9.265C66.079,118.816,69.6,122.106,73.988,126ZM54.613,114.361a3.007,3.007,0,0,1-3.29-2.713,3.08,3.08,0,0,1,.656-2.231A2.946,2.946,0,0,1,54,108.307L56.919,108a5.271,5.271,0,0,1,4.269-3.107,5.437,5.437,0,0,1,5.941,4.826c.007.068.013.128.016.2a.512.512,0,0,1,.013.072,2.945,2.945,0,0,1-.012.722,3.033,3.033,0,0,1-2.676,2.619l-6.571.688Q56.257,114.191,54.613,114.361Z" style="fill:#e1dfdd"/><path d="M73.988,126c-4.386-3.89-7.909-7.18-12.139-6.744-4.49.473-9.041,4.3-15.381,9.265.242,4.354.416,8.706.5,13.051,5.972-2.384,18.623-7.88,25.536-14.153C73.017,126.954,73.508,126.477,73.988,126Z" style="fill:#f2f2f2"/><path d="M73.988,126c-4.386-3.89-7.909-7.18-12.139-6.744-4.49.473-9.041,4.3-15.381,9.265.242,4.354.416,8.706.5,13.051,5.972-2.384,18.623-7.88,25.536-14.153C73.017,126.954,73.508,126.477,73.988,126Z" style="fill:url(#radial-gradient-3)"/><path d="M97.526,96.537a6.406,6.406,0,0,0-6.483-5.452,9.99,9.99,0,0,0-10.059-6.058,8.546,8.546,0,0,0-6.949,5A7.109,7.109,0,0,0,67.9,98.239a7.877,7.877,0,0,0,1.891,4.122,7.547,7.547,0,0,0,6.442,2.558q7.081-.742,14.159-1.488a17.1,17.1,0,0,1,7.021-4.6A6,6,0,0,0,97.526,96.537Z" style="fill:#fff"/><path d="M66.5,112.218a2.976,2.976,0,0,0,.647-1.509,2.945,2.945,0,0,0,.012-.722.512.512,0,0,0-.013-.072c0-.068-.009-.128-.016-.2a5.437,5.437,0,0,0-5.941-4.826A5.271,5.271,0,0,0,56.919,108L54,108.307a2.946,2.946,0,0,0-2.016,1.11,3.08,3.08,0,0,0-.656,2.231,3.007,3.007,0,0,0,3.29,2.713q1.644-.171,3.286-.345l6.571-.688A2.989,2.989,0,0,0,66.5,112.218Z" style="fill:#fff"/><path d="M102.43,97.978c-.486.019-.989.05-1.521.106a16.751,16.751,0,0,0-3.5.749,17.1,17.1,0,0,0-7.021,4.6c-5.6,5.83-9.076,15.222-16.4,22.565-.48.481-.971.958-1.486,1.419-6.913,6.273-19.564,11.769-25.536,14.153,0,.032,0,.062,0,.093q29.427-3.1,58.8-6.206A361.229,361.229,0,0,0,102.43,97.978Z" style="fill:#c6c4c2"/><path d="M111.955,127.577A39.089,39.089,0,1,0,150.908,166.8,39.089,39.089,0,0,0,111.955,127.577Zm-17.287,68.56a34.1,34.1,0,1,1,46.623-12.319A34.1,34.1,0,0,1,94.668,196.137Z" style="fill:#74adee"/><path d="M128.971,137.194a34.1,34.1,0,1,0,12.32,46.624A34.1,34.1,0,0,0,128.971,137.194ZM87.466,152l.2-.348a.3.3,0,0,1,.416-.109l1.451.844a.3.3,0,0,1,.11.416l-.2.347a.3.3,0,0,1-.416.11l-1.451-.844A.305.305,0,0,1,87.466,152Zm-.312,14.188a.3.3,0,0,1-.3.3l-3.866-.013a.3.3,0,0,1-.3-.306v-.4a.3.3,0,0,1,.305-.3l3.866.014a.3.3,0,0,1,.3.3Zm2.383,13.389-1.46.836a.3.3,0,0,1-.416-.113l-.2-.348a.3.3,0,0,1,.113-.416l1.46-.836a.3.3,0,0,1,.415.113l.2.348A.306.306,0,0,1,89.537,179.581Zm35.252-36.64.849-1.459a.305.305,0,0,1,.416-.11l.347.2a.3.3,0,0,1,.111.416l-.85,1.459a.3.3,0,0,1-.416.11l-.347-.2A.305.305,0,0,1,124.789,142.941Zm-13.215-6.048a.3.3,0,0,1,.306-.3h.4a.306.306,0,0,1,.3.306l-.014,3.865a.3.3,0,0,1-.3.3h-.4a.3.3,0,0,1-.3-.306ZM97.751,141.57l.348-.2a.3.3,0,0,1,.416.113l.837,1.462a.305.305,0,0,1-.112.416l-.349.2a.3.3,0,0,1-.415-.113l-.838-1.462A.3.3,0,0,1,97.751,141.57Zm1.6,47.458-.845,1.452a.3.3,0,0,1-.416.11l-.347-.2a.3.3,0,0,1-.11-.416l.845-1.452a.3.3,0,0,1,.416-.11l.347.2A.3.3,0,0,1,99.354,189.028Zm13.217,6.045a.3.3,0,0,1-.3.3h-.4a.3.3,0,0,1-.3-.306l.013-3.866a.3.3,0,0,1,.306-.3h.4a.306.306,0,0,1,.3.306ZM126.4,190.4l-.349.2a.3.3,0,0,1-.415-.113l-.84-1.466a.306.306,0,0,1,.113-.416l.348-.2a.306.306,0,0,1,.416.113l.839,1.466A.3.3,0,0,1,126.4,190.4Zm6.059-43.872-18.387,18.13a2.1,2.1,0,0,1,.081.581,2.125,2.125,0,0,1-1.492,1.988L110.029,185.6a.8.8,0,0,1-.9.676h0a.8.8,0,0,1-.676-.9l2.615-18.271a2.124,2.124,0,1,1,2.034-3.725l18.233-17.981a.8.8,0,0,1,1.122,1.131Zm4.226,33.438-.2.347a.3.3,0,0,1-.416.111l-1.455-.847a.305.305,0,0,1-.11-.416l.2-.347a.305.305,0,0,1,.417-.111l1.454.847A.3.3,0,0,1,136.681,179.963Zm-.108-27.539-1.464.839a.306.306,0,0,1-.416-.113l-.2-.349a.3.3,0,0,1,.113-.415l1.464-.838a.3.3,0,0,1,.415.112l.2.349A.3.3,0,0,1,136.573,152.424Zm4.586,14.071-3.866-.013a.3.3,0,0,1-.3-.306v-.4a.3.3,0,0,1,.3-.3l3.867.014a.3.3,0,0,1,.3.3l0,.4A.3.3,0,0,1,141.159,166.5Z" style="fill:#74adee"/><path d="M128.971,137.194a34.1,34.1,0,1,0,12.32,46.624A34.1,34.1,0,0,0,128.971,137.194ZM87.466,152l.2-.348a.3.3,0,0,1,.416-.109l1.451.844a.3.3,0,0,1,.11.416l-.2.347a.3.3,0,0,1-.416.11l-1.451-.844A.305.305,0,0,1,87.466,152Zm-.312,14.188a.3.3,0,0,1-.3.3l-3.866-.013a.3.3,0,0,1-.3-.306v-.4a.3.3,0,0,1,.305-.3l3.866.014a.3.3,0,0,1,.3.3Zm2.383,13.389-1.46.836a.3.3,0,0,1-.416-.113l-.2-.348a.3.3,0,0,1,.113-.416l1.46-.836a.3.3,0,0,1,.415.113l.2.348A.306.306,0,0,1,89.537,179.581Zm35.252-36.64.849-1.459a.305.305,0,0,1,.416-.11l.347.2a.3.3,0,0,1,.111.416l-.85,1.459a.3.3,0,0,1-.416.11l-.347-.2A.305.305,0,0,1,124.789,142.941Zm-13.215-6.048a.3.3,0,0,1,.306-.3h.4a.306.306,0,0,1,.3.306l-.014,3.865a.3.3,0,0,1-.3.3h-.4a.3.3,0,0,1-.3-.306ZM97.751,141.57l.348-.2a.3.3,0,0,1,.416.113l.837,1.462a.305.305,0,0,1-.112.416l-.349.2a.3.3,0,0,1-.415-.113l-.838-1.462A.3.3,0,0,1,97.751,141.57Zm1.6,47.458-.845,1.452a.3.3,0,0,1-.416.11l-.347-.2a.3.3,0,0,1-.11-.416l.845-1.452a.3.3,0,0,1,.416-.11l.347.2A.3.3,0,0,1,99.354,189.028Zm13.217,6.045a.3.3,0,0,1-.3.3h-.4a.3.3,0,0,1-.3-.306l.013-3.866a.3.3,0,0,1,.306-.3h.4a.306.306,0,0,1,.3.306ZM126.4,190.4l-.349.2a.3.3,0,0,1-.415-.113l-.84-1.466a.306.306,0,0,1,.113-.416l.348-.2a.306.306,0,0,1,.416.113l.839,1.466A.3.3,0,0,1,126.4,190.4Zm6.059-43.872-18.387,18.13a2.1,2.1,0,0,1,.081.581,2.125,2.125,0,0,1-1.492,1.988L110.029,185.6a.8.8,0,0,1-.9.676h0a.8.8,0,0,1-.676-.9l2.615-18.271a2.124,2.124,0,1,1,2.034-3.725l18.233-17.981a.8.8,0,0,1,1.122,1.131Zm4.226,33.438-.2.347a.3.3,0,0,1-.416.111l-1.455-.847a.305.305,0,0,1-.11-.416l.2-.347a.305.305,0,0,1,.417-.111l1.454.847A.3.3,0,0,1,136.681,179.963Zm-.108-27.539-1.464.839a.306.306,0,0,1-.416-.113l-.2-.349a.3.3,0,0,1,.113-.415l1.464-.838a.3.3,0,0,1,.415.112l.2.349A.3.3,0,0,1,136.573,152.424Zm4.586,14.071-3.866-.013a.3.3,0,0,1-.3-.306v-.4a.3.3,0,0,1,.3-.3l3.867.014a.3.3,0,0,1,.3.3l0,.4A.3.3,0,0,1,141.159,166.5Z" style="fill:#fff;opacity:0.7000000000000001"/><path d="M110.14,138.323h3.866a.3.3,0,0,1,.3.3v.4a.3.3,0,0,1-.3.3H110.14a.3.3,0,0,1-.3-.3v-.4A.3.3,0,0,1,110.14,138.323Z" transform="translate(-27.163 250.393) rotate(-89.791)" style="fill:#328ad5"/><path d="M98.294,141.319h.4a.3.3,0,0,1,.3.3v1.686a.3.3,0,0,1-.3.3h-.4a.3.3,0,0,1-.3-.3v-1.686a.3.3,0,0,1,.3-.3Z" transform="translate(-57.807 67.85) rotate(-29.823)" style="fill:#328ad5"/><path d="M88.355,151.261h.4a.3.3,0,0,1,.3.3v1.679a.3.3,0,0,1-.3.3h-.4a.3.3,0,0,1-.3-.3v-1.679a.3.3,0,0,1,.3-.3Z" transform="translate(-87.71 152.244) rotate(-59.789)" style="fill:#328ad5"/><path d="M84.716,163.746h.4a.3.3,0,0,1,.3.3v3.866a.3.3,0,0,1-.3.3h-.4a.3.3,0,0,1-.3-.3V164.05a.3.3,0,0,1,.3-.3Z" transform="translate(-81.365 250.313) rotate(-89.797)" style="fill:#328ad5"/><path d="M87.714,179.055H89.4a.3.3,0,0,1,.3.3v.4a.3.3,0,0,1-.3.3H87.715a.3.3,0,0,1-.3-.3v-.4a.3.3,0,0,1,.3-.3Z" transform="translate(-77.544 67.78) rotate(-29.809)" style="fill:#328ad5"/><rect x="97.351" y="188.995" width="2.289" height="1.01" rx="0.304" transform="translate(-114.831 179.327) rotate(-59.806)" style="fill:#328ad5"/><path d="M110.139,192.633h3.866a.3.3,0,0,1,.3.3v.4a.3.3,0,0,1-.3.3H110.14a.3.3,0,0,1-.3-.3v-.4a.3.3,0,0,1,.3-.3Z" transform="translate(-81.337 304.741) rotate(-89.861)" style="fill:#328ad5"/><path d="M125.45,188.351h.4a.3.3,0,0,1,.3.3v1.69a.3.3,0,0,1-.3.3h-.4a.3.3,0,0,1-.3-.3v-1.69A.3.3,0,0,1,125.45,188.351Z" transform="translate(-77.463 87.308) rotate(-29.745)" style="fill:#328ad5"/><rect x="135.084" y="178.415" width="1.011" height="2.292" rx="0.304" transform="translate(-87.795 206.498) rotate(-59.819)" style="fill:#328ad5"/><rect x="138.723" y="163.746" width="1.011" height="4.475" rx="0.304" transform="translate(-27.246 304.623) rotate(-89.797)" style="fill:#328ad5"/><path d="M134.746,151.9h1.688a.3.3,0,0,1,.3.3v.4a.3.3,0,0,1-.3.3h-1.687a.3.3,0,0,1-.3-.3v-.4a.3.3,0,0,1,.3-.3Z" transform="translate(-57.824 87.574) rotate(-29.811)" style="fill:#328ad5"/><path d="M124.807,141.961h1.688a.3.3,0,0,1,.3.3v.4a.3.3,0,0,1-.3.3h-1.688a.3.3,0,0,1-.3-.3v-.4A.3.3,0,0,1,124.807,141.961Z" transform="translate(-60.683 179.402) rotate(-59.801)" style="fill:#328ad5"/><path d="M111.066,167.1l-2.615,18.271a.8.8,0,0,0,.676.9h0a.8.8,0,0,0,.9-.676l2.628-18.373a2.1,2.1,0,0,1-.675.108A2.119,2.119,0,0,1,111.066,167.1Z" style="fill:#328ad5"/><path d="M131.333,145.394,113.1,163.375a2.12,2.12,0,0,1,.968,1.28l18.387-18.13a.8.8,0,0,0-1.122-1.131Z" style="fill:#328ad5"/><path d="M113.1,163.375a2.192,2.192,0,1,0,.968,1.28A2.11,2.11,0,0,0,113.1,163.375Z" style="fill:#328ad5"/></svg>