<?xml version="1.0" encoding="UTF-8"?>
<!-- Generator: Adobe Illustrator 18.1.0, SVG Export Plug-In . SVG Version: 6.00 Build 0)  -->
<!DOCTYPE svg PUBLIC "-//W3C//DTD SVG 1.1//EN" "http://www.w3.org/Graphics/SVG/1.1/DTD/svg11.dtd">
<svg version="1.1" id="Layer_1" xmlns="http://www.w3.org/2000/svg" xmlns:xlink="http://www.w3.org/1999/xlink" x="0px" y="0px" viewBox="0 0 208 208" enable-background="new 0 0 208 208" xml:space="preserve">
<g>
	<path fill="#CDCCCC" d="M157.3,31.8H60c-2.5,0-4.6,2-4.6,4.6v165.7c0,2.5,2,4.6,4.6,4.6h97.4c2.5,0,4.6-2,4.6-4.6V36.4   C161.9,33.9,159.9,31.8,157.3,31.8z"/>
	<g>
		<g>
			<circle fill="#FFFFFF" cx="130.6" cy="60.4" r="4.9"/>
		</g>
		<g>
			<g>
				<path fill="#A09F9F" d="M108.6,50.3c5.6,0,10.1,4.5,10.1,10.1c0,5.6-4.5,10.1-10.1,10.1S98.5,66,98.5,60.4      C98.5,54.8,103,50.3,108.6,50.3 M108.6,47.8c-7,0-12.6,5.7-12.6,12.6c0,7,5.7,12.6,12.6,12.6s12.6-5.7,12.6-12.6      C121.2,53.4,115.5,47.8,108.6,47.8L108.6,47.8z"/>
			</g>
			<g>
				<circle fill="#E7E5E6" cx="108.6" cy="60.4" r="10.2"/>
			</g>
			<g>
				<circle fill="#FFFFFF" cx="108.6" cy="60.4" r="4.4"/>
			</g>
		</g>
	</g>
	<path fill="#A09F9F" d="M54.7,49.4h0.7v21.9h-0.7c-0.8,0-1.4-0.6-1.4-1.4V50.8C53.3,50,53.9,49.4,54.7,49.4z"/>
	<path fill="#A09F9F" d="M162.7,49.4h-0.7v21.9h0.7c0.8,0,1.4-0.6,1.4-1.4V50.8C164,50,163.4,49.4,162.7,49.4z"/>
	<path fill="#A09F9F" d="M54.7,158.3h0.7v21.9h-0.7c-0.8,0-1.4-0.6-1.4-1.4v-19.2C53.3,158.9,53.9,158.3,54.7,158.3z"/>
</g>
<polygon opacity="0.6" fill="#EFEFEF" points="188.6,60.4 164.4,67.1 184.2,82.6 159.3,79.6 171.6,101.4 149.8,89.1 152.8,114   137.3,94.3 130.6,118.4 123.8,94.3 108.4,114 111.4,89.1 89.6,101.4 101.9,79.6 77,82.6 96.7,67.1 72.6,60.4 96.7,53.6 77,38.2   101.9,41.2 89.6,19.4 111.4,31.7 108.4,6.8 123.8,26.5 130.6,2.4 137.3,26.5 152.8,6.8 149.8,31.7 171.6,19.4 159.3,41.2   184.2,38.2 164.4,53.6 "/>
</svg>